<svg width="18" height="20" viewBox="0 0 18 20" fill="none" xmlns="http://www.w3.org/2000/svg">
<path d="M9.00021 4C8.45021 4 7.97954 3.804 7.58821 3.412C7.19621 3.02067 7.00021 2.55 7.00021 2C7.00021 1.45 7.19621 0.979 7.58821 0.587C7.97954 0.195667 8.45021 0 9.00021 0C9.55021 0 10.0212 0.195667 10.4132 0.587C10.8045 0.979 11.0002 1.45 11.0002 2C11.0002 2.55 10.8045 3.02067 10.4132 3.412C10.0212 3.804 9.55021 4 9.00021 4ZM17.0002 6.25C16.2002 6.43333 15.3752 6.58733 14.5252 6.712C13.6752 6.83733 12.8335 6.93333 12.0002 7V19.025C12.0002 19.3083 11.9045 19.5417 11.7132 19.725C11.5212 19.9083 11.2835 20 11.0002 20C10.7169 20 10.4795 19.904 10.2882 19.712C10.0962 19.5207 10.0002 19.2833 10.0002 19V14H8.00021V19.025C8.00021 19.3083 7.90454 19.5417 7.71321 19.725C7.52121 19.9083 7.28354 20 7.00021 20C6.71688 20 6.47954 19.904 6.28821 19.712C6.09621 19.5207 6.00021 19.2833 6.00021 19V7C5.16688 6.93333 4.32521 6.83733 3.47521 6.712C2.62521 6.58733 1.80021 6.43333 1.00021 6.25C0.716876 6.18333 0.500209 6.029 0.350209 5.787C0.200209 5.54567 0.166876 5.28333 0.250209 5C0.316876 4.71667 0.471209 4.504 0.713209 4.362C0.954543 4.22067 1.21688 4.18333 1.50021 4.25C2.70021 4.51667 3.93788 4.70833 5.21321 4.825C6.48788 4.94167 7.75021 5 9.00021 5C10.2502 5 11.5125 4.94167 12.7872 4.825C14.0625 4.70833 15.3002 4.51667 16.5002 4.25C16.7835 4.18333 17.0419 4.22067 17.2752 4.362C17.5085 4.504 17.6669 4.71667 17.7502 5C17.8169 5.28333 17.7795 5.54567 17.6382 5.787C17.4962 6.029 17.2835 6.18333 17.0002 6.25Z" fill="white"/>
</svg>
