<svg width="40" height="40" viewBox="0 0 40 40" fill="none" xmlns="http://www.w3.org/2000/svg">
<rect width="40" height="40" rx="20" fill="url(#paint0_linear_2025_3039)"/>
<mask id="mask0_2025_3039" style="mask-type:alpha" maskUnits="userSpaceOnUse" x="8" y="8" width="24" height="24">
<rect x="8" y="8" width="24" height="24" fill="#D9D9D9"/>
</mask>
<g mask="url(#mask0_2025_3039)">
<path d="M14 28C13.45 28 12.9792 27.8042 12.5875 27.4125C12.1958 27.0208 12 26.55 12 26C12 25.45 12.1958 24.9792 12.5875 24.5875C12.9792 24.1958 13.45 24 14 24C14.55 24 15.0208 24.1958 15.4125 24.5875C15.8042 24.9792 16 25.45 16 26C16 26.55 15.8042 27.0208 15.4125 27.4125C15.0208 27.8042 14.55 28 14 28ZM20 28C19.45 28 18.9792 27.8042 18.5875 27.4125C18.1958 27.0208 18 26.55 18 26C18 25.45 18.1958 24.9792 18.5875 24.5875C18.9792 24.1958 19.45 24 20 24C20.55 24 21.0208 24.1958 21.4125 24.5875C21.8042 24.9792 22 25.45 22 26C22 26.55 21.8042 27.0208 21.4125 27.4125C21.0208 27.8042 20.55 28 20 28ZM26 28C25.45 28 24.9792 27.8042 24.5875 27.4125C24.1958 27.0208 24 26.55 24 26C24 25.45 24.1958 24.9792 24.5875 24.5875C24.9792 24.1958 25.45 24 26 24C26.55 24 27.0208 24.1958 27.4125 24.5875C27.8042 24.9792 28 25.45 28 26C28 26.55 27.8042 27.0208 27.4125 27.4125C27.0208 27.8042 26.55 28 26 28ZM14 22C13.45 22 12.9792 21.8042 12.5875 21.4125C12.1958 21.0208 12 20.55 12 20C12 19.45 12.1958 18.9792 12.5875 18.5875C12.9792 18.1958 13.45 18 14 18C14.55 18 15.0208 18.1958 15.4125 18.5875C15.8042 18.9792 16 19.45 16 20C16 20.55 15.8042 21.0208 15.4125 21.4125C15.0208 21.8042 14.55 22 14 22ZM20 22C19.45 22 18.9792 21.8042 18.5875 21.4125C18.1958 21.0208 18 20.55 18 20C18 19.45 18.1958 18.9792 18.5875 18.5875C18.9792 18.1958 19.45 18 20 18C20.55 18 21.0208 18.1958 21.4125 18.5875C21.8042 18.9792 22 19.45 22 20C22 20.55 21.8042 21.0208 21.4125 21.4125C21.0208 21.8042 20.55 22 20 22ZM26 22C25.45 22 24.9792 21.8042 24.5875 21.4125C24.1958 21.0208 24 20.55 24 20C24 19.45 24.1958 18.9792 24.5875 18.5875C24.9792 18.1958 25.45 18 26 18C26.55 18 27.0208 18.1958 27.4125 18.5875C27.8042 18.9792 28 19.45 28 20C28 20.55 27.8042 21.0208 27.4125 21.4125C27.0208 21.8042 26.55 22 26 22ZM14 16C13.45 16 12.9792 15.8042 12.5875 15.4125C12.1958 15.0208 12 14.55 12 14C12 13.45 12.1958 12.9792 12.5875 12.5875C12.9792 12.1958 13.45 12 14 12C14.55 12 15.0208 12.1958 15.4125 12.5875C15.8042 12.9792 16 13.45 16 14C16 14.55 15.8042 15.0208 15.4125 15.4125C15.0208 15.8042 14.55 16 14 16ZM20 16C19.45 16 18.9792 15.8042 18.5875 15.4125C18.1958 15.0208 18 14.55 18 14C18 13.45 18.1958 12.9792 18.5875 12.5875C18.9792 12.1958 19.45 12 20 12C20.55 12 21.0208 12.1958 21.4125 12.5875C21.8042 12.9792 22 13.45 22 14C22 14.55 21.8042 15.0208 21.4125 15.4125C21.0208 15.8042 20.55 16 20 16ZM26 16C25.45 16 24.9792 15.8042 24.5875 15.4125C24.1958 15.0208 24 14.55 24 14C24 13.45 24.1958 12.9792 24.5875 12.5875C24.9792 12.1958 25.45 12 26 12C26.55 12 27.0208 12.1958 27.4125 12.5875C27.8042 12.9792 28 13.45 28 14C28 14.55 27.8042 15.0208 27.4125 15.4125C27.0208 15.8042 26.55 16 26 16Z" fill="white"/>
</g>
<defs>
<linearGradient id="paint0_linear_2025_3039" x1="8.5" y1="-3.70294e-07" x2="20" y2="40" gradientUnits="userSpaceOnUse">
<stop stop-color="#00B3FF"/>
<stop offset="0.62309" stop-color="#007EB3"/>
<stop offset="1" stop-color="#005E86"/>
</linearGradient>
</defs>
</svg>
