<svg width="24" height="24" viewBox="0 0 24 24" fill="none" xmlns="http://www.w3.org/2000/svg">
<mask id="mask0_2026_3042" style="mask-type:alpha" maskUnits="userSpaceOnUse" x="0" y="0" width="24" height="24">
<rect width="24" height="24" fill="#D9D9D9"/>
</mask>
<g mask="url(#mask0_2026_3042)">
<path d="M8 22C7.71667 22 7.479 21.904 7.287 21.712C7.09567 21.5207 7 21.2833 7 21V5C7 4.71667 7.09567 4.479 7.287 4.287C7.479 4.09567 7.71667 4 8 4H10V3C10 2.71667 10.096 2.479 10.288 2.287C10.4793 2.09567 10.7167 2 11 2H13C13.2833 2 13.521 2.09567 13.713 2.287C13.9043 2.479 14 2.71667 14 3V4H16C16.2833 4 16.5207 4.09567 16.712 4.287C16.904 4.479 17 4.71667 17 5V21C17 21.2833 16.904 21.5207 16.712 21.712C16.5207 21.904 16.2833 22 16 22H8ZM11.95 18.225L14.6 13.225C14.6833 13.0583 14.6793 12.896 14.588 12.738C14.496 12.5793 14.3583 12.5 14.175 12.5H13V9C13 8.73333 12.875 8.57067 12.625 8.512C12.375 8.454 12.1833 8.54167 12.05 8.775L9.4 13.775C9.31667 13.9417 9.321 14.104 9.413 14.262C9.50433 14.4207 9.64167 14.5 9.825 14.5H11V18C11 18.2667 11.125 18.429 11.375 18.487C11.625 18.5457 11.8167 18.4583 11.95 18.225Z" fill="white"/>
</g>
</svg>
