<svg width="24" height="24" viewBox="0 0 24 24" fill="none" xmlns="http://www.w3.org/2000/svg">
<mask id="mask0_2037_3043" style="mask-type:alpha" maskUnits="userSpaceOnUse" x="0" y="0" width="24" height="24">
<rect width="24" height="24" fill="#D9D9D9"/>
</mask>
<g mask="url(#mask0_2037_3043)">
<path d="M5 13.5C4.58333 13.5 4.22933 13.354 3.938 13.062C3.646 12.7706 3.5 12.4166 3.5 12C3.5 11.5833 3.646 11.2293 3.938 10.938C4.22933 10.646 4.58333 10.5 5 10.5C5.41667 10.5 5.77067 10.646 6.062 10.938C6.354 11.2293 6.5 11.5833 6.5 12C6.5 12.4166 6.354 12.7706 6.062 13.062C5.77067 13.354 5.41667 13.5 5 13.5ZM19 13.5C18.5833 13.5 18.2293 13.354 17.938 13.062C17.646 12.7706 17.5 12.4166 17.5 12C17.5 11.5833 17.646 11.2293 17.938 10.938C18.2293 10.646 18.5833 10.5 19 10.5C19.4167 10.5 19.7707 10.646 20.062 10.938C20.354 11.2293 20.5 11.5833 20.5 12C20.5 12.4166 20.354 12.7706 20.062 13.062C19.7707 13.354 19.4167 13.5 19 13.5ZM11 14.4L7.1 18.3C6.91667 18.4833 6.68333 18.575 6.4 18.575C6.11667 18.575 5.88333 18.4833 5.7 18.3C5.51667 18.1166 5.425 17.8833 5.425 17.6C5.425 17.3166 5.51667 17.0833 5.7 16.9L10.6 12L5.7 7.09995C5.51667 6.91662 5.425 6.68328 5.425 6.39995C5.425 6.11662 5.51667 5.88328 5.7 5.69995C5.88333 5.51662 6.11667 5.42495 6.4 5.42495C6.68333 5.42495 6.91667 5.51662 7.1 5.69995L11 9.59995V3.42495C11 3.14162 11.0873 2.90828 11.262 2.72495C11.4373 2.54162 11.6583 2.44995 11.925 2.44995C12.0917 2.44995 12.2583 2.48728 12.425 2.56195C12.5917 2.63728 12.7417 2.74162 12.875 2.87495L17 6.99995C17.1 7.09995 17.171 7.20828 17.213 7.32495C17.2543 7.44162 17.275 7.56662 17.275 7.69995C17.275 7.83328 17.2543 7.95828 17.213 8.07495C17.171 8.19162 17.1 8.29995 17 8.39995L13.4 12L17 15.6C17.1 15.7 17.171 15.8083 17.213 15.925C17.2543 16.0416 17.275 16.1666 17.275 16.3C17.275 16.4333 17.2543 16.5583 17.213 16.675C17.171 16.7916 17.1 16.9 17 17L12.875 21.125C12.7417 21.2583 12.5917 21.3626 12.425 21.438C12.2583 21.5126 12.0917 21.5499 11.925 21.5499C11.6583 21.5499 11.4373 21.4583 11.262 21.275C11.0873 21.0916 11 20.8583 11 20.575V14.4ZM13 9.59995L14.9 7.69995L13 5.84995V9.59995ZM13 18.15L14.9 16.3L13 14.4V18.15Z" fill="#2D2D2D"/>
</g>
</svg>
