<svg width="40" height="40" viewBox="0 0 40 40" fill="none" xmlns="http://www.w3.org/2000/svg">
<rect x="0.5" y="0.5" width="39" height="39" rx="19.5" stroke="#7B7B7B"/>
<mask id="mask0_2050_3054" style="mask-type:alpha" maskUnits="userSpaceOnUse" x="8" y="8" width="24" height="24">
<rect x="32" y="8" width="24" height="24" transform="rotate(90 32 8)" fill="#D9D9D9"/>
</mask>
<g mask="url(#mask0_2050_3054)">
<path d="M14.7002 16.7C14.8835 16.5167 15.1169 16.425 15.4002 16.425C15.6835 16.425 15.9169 16.5167 16.1002 16.7L20.0002 20.6L23.9002 16.7C24.0835 16.5167 24.3169 16.425 24.6002 16.425C24.8835 16.425 25.1169 16.5167 25.3002 16.7C25.4835 16.8834 25.5752 17.1167 25.5752 17.4C25.5752 17.6834 25.4835 17.9167 25.3002 18.1L20.7002 22.7C20.6002 22.8 20.4919 22.871 20.3752 22.913C20.2585 22.9544 20.1335 22.975 20.0002 22.975C19.8669 22.975 19.7419 22.9544 19.6252 22.913C19.5085 22.871 19.4002 22.8 19.3002 22.7L14.7002 18.1C14.5169 17.9167 14.4252 17.6834 14.4252 17.4C14.4252 17.1167 14.5169 16.8834 14.7002 16.7Z" fill="white"/>
</g>
</svg>
