<svg width="24" height="24" viewBox="0 0 24 24" fill="none" xmlns="http://www.w3.org/2000/svg">
<mask id="mask0_2024_3033" style="mask-type:alpha" maskUnits="userSpaceOnUse" x="0" y="0" width="24" height="24">
<rect width="24" height="24" fill="#D9D9D9"/>
</mask>
<g mask="url(#mask0_2024_3033)">
<path d="M18.9998 8.29995C18.9165 8.29995 18.8291 8.27495 18.7378 8.22495C18.6458 8.17495 18.5831 8.09995 18.5498 7.99995L17.7498 6.24995L15.9998 5.44995C15.8998 5.41662 15.8248 5.35395 15.7748 5.26195C15.7248 5.17062 15.6998 5.08328 15.6998 4.99995C15.6998 4.91662 15.7248 4.82895 15.7748 4.73695C15.8248 4.64562 15.8998 4.58328 15.9998 4.54995L17.7498 3.74995L18.5498 1.99995C18.5831 1.89995 18.6458 1.82495 18.7378 1.77495C18.8291 1.72495 18.9165 1.69995 18.9998 1.69995C19.0831 1.69995 19.1708 1.72495 19.2628 1.77495C19.3541 1.82495 19.4165 1.89995 19.4498 1.99995L20.2498 3.74995L21.9998 4.54995C22.0998 4.58328 22.1748 4.64562 22.2248 4.73695C22.2748 4.82895 22.2998 4.91662 22.2998 4.99995C22.2998 5.08328 22.2748 5.17062 22.2248 5.26195C22.1748 5.35395 22.0998 5.41662 21.9998 5.44995L20.2498 6.24995L19.4498 7.99995C19.4165 8.09995 19.3541 8.17495 19.2628 8.22495C19.1708 8.27495 19.0831 8.29995 18.9998 8.29995ZM18.9998 22.2999C18.9165 22.2999 18.8291 22.275 18.7378 22.225C18.6458 22.175 18.5831 22.1 18.5498 22L17.7498 20.25L15.9998 19.45C15.8998 19.4166 15.8248 19.3539 15.7748 19.2619C15.7248 19.1706 15.6998 19.0833 15.6998 19C15.6998 18.9166 15.7248 18.8293 15.7748 18.738C15.8248 18.646 15.8998 18.5833 15.9998 18.5499L17.7498 17.75L18.5498 16C18.5831 15.9 18.6458 15.825 18.7378 15.775C18.8291 15.725 18.9165 15.7 18.9998 15.7C19.0831 15.7 19.1708 15.725 19.2628 15.775C19.3541 15.825 19.4165 15.9 19.4498 16L20.2498 17.75L21.9998 18.5499C22.0998 18.5833 22.1748 18.646 22.2248 18.738C22.2748 18.8293 22.2998 18.9166 22.2998 19C22.2998 19.0833 22.2748 19.1706 22.2248 19.2619C22.1748 19.3539 22.0998 19.4166 21.9998 19.45L20.2498 20.25L19.4498 22C19.4165 22.1 19.3541 22.175 19.2628 22.225C19.1708 22.275 19.0831 22.2999 18.9998 22.2999ZM8.9998 18.575C8.81647 18.575 8.64147 18.525 8.4748 18.4249C8.30814 18.3249 8.18314 18.1833 8.0998 18L6.4998 14.5L2.9998 12.9C2.81647 12.8166 2.6748 12.6916 2.5748 12.525C2.4748 12.3583 2.4248 12.1833 2.4248 12C2.4248 11.8166 2.4748 11.6416 2.5748 11.475C2.6748 11.3083 2.81647 11.1833 2.9998 11.1L6.4998 9.49995L8.0998 5.99995C8.18314 5.81662 8.30814 5.67495 8.4748 5.57495C8.64147 5.47495 8.81647 5.42495 8.9998 5.42495C9.18314 5.42495 9.35814 5.47495 9.5248 5.57495C9.69147 5.67495 9.81647 5.81662 9.8998 5.99995L11.4998 9.49995L14.9998 11.1C15.1831 11.1833 15.3248 11.3083 15.4248 11.475C15.5248 11.6416 15.5748 11.8166 15.5748 12C15.5748 12.1833 15.5248 12.3583 15.4248 12.525C15.3248 12.6916 15.1831 12.8166 14.9998 12.9L11.4998 14.5L9.8998 18C9.81647 18.1833 9.69147 18.3249 9.5248 18.4249C9.35814 18.525 9.18314 18.575 8.9998 18.575ZM8.9998 15.15L9.9998 13L12.1498 12L9.9998 11L8.9998 8.84995L7.9998 11L5.8498 12L7.9998 13L8.9998 15.15Z" fill="white"/>
</g>
</svg>
