<svg width="70" height="70" viewBox="0 0 70 70" fill="none" xmlns="http://www.w3.org/2000/svg">
<circle cx="35" cy="35" r="35" fill="url(#paint0_linear_2073_3032)"/>
<mask id="mask0_2073_3032" style="mask-type:alpha" maskUnits="userSpaceOnUse" x="10" y="10" width="50" height="50">
<rect x="10" y="10" width="50" height="50" fill="#D9D9D9"/>
</mask>
<g mask="url(#mask0_2073_3032)">
<path d="M23.9588 53.75C22.9518 53.75 22.0577 53.4201 21.2765 52.7604C20.4952 52.1007 20.0178 51.2674 19.8442 50.2604L16.6671 31.1979C16.5629 30.5729 16.7105 30.0087 17.1098 29.5052C17.5091 29.0017 18.0386 28.75 18.6983 28.75H51.3025C51.9622 28.75 52.4917 29.0017 52.891 29.5052C53.2904 30.0087 53.4379 30.5729 53.3338 31.1979L50.1567 50.2604C49.9831 51.2674 49.5056 52.1007 48.7244 52.7604C47.9431 53.4201 47.049 53.75 46.0421 53.75H23.9588ZM21.2504 32.9167L23.9067 49.5833H46.0942L48.7504 32.9167H21.2504ZM30.8338 41.25H39.1671C39.7574 41.25 40.2522 41.0503 40.6515 40.651C41.0508 40.2517 41.2504 39.7569 41.2504 39.1667C41.2504 38.5764 41.0508 38.0816 40.6515 37.6823C40.2522 37.283 39.7574 37.0833 39.1671 37.0833H30.8338C30.2435 37.0833 29.7487 37.283 29.3494 37.6823C28.9501 38.0816 28.7504 38.5764 28.7504 39.1667C28.7504 39.7569 28.9501 40.2517 29.3494 40.651C29.7487 41.0503 30.2435 41.25 30.8338 41.25ZM22.5004 26.6667C21.9101 26.6667 21.4154 26.467 21.0161 26.0677C20.6167 25.6684 20.4171 25.1736 20.4171 24.5833C20.4171 23.9931 20.6167 23.4983 21.0161 23.099C21.4154 22.6997 21.9101 22.5 22.5004 22.5H47.5004C48.0907 22.5 48.5855 22.6997 48.9848 23.099C49.3841 23.4983 49.5838 23.9931 49.5838 24.5833C49.5838 25.1736 49.3841 25.6684 48.9848 26.0677C48.5855 26.467 48.0907 26.6667 47.5004 26.6667H22.5004ZM26.6671 20.4167C26.0768 20.4167 25.582 20.217 25.1827 19.8177C24.7834 19.4184 24.5838 18.9236 24.5838 18.3333C24.5838 17.7431 24.7834 17.2483 25.1827 16.849C25.582 16.4497 26.0768 16.25 26.6671 16.25H43.3338C43.924 16.25 44.4188 16.4497 44.8181 16.849C45.2174 17.2483 45.4171 17.7431 45.4171 18.3333C45.4171 18.9236 45.2174 19.4184 44.8181 19.8177C44.4188 20.217 43.924 20.4167 43.3338 20.4167H26.6671Z" fill="white"/>
</g>
<defs>
<linearGradient id="paint0_linear_2073_3032" x1="14.5" y1="-1.09971e-06" x2="55.5" y2="70" gradientUnits="userSpaceOnUse">
<stop stop-color="#FFC700" stop-opacity="0.81"/>
<stop offset="1" stop-color="#AA8502"/>
</linearGradient>
</defs>
</svg>
