<svg width="346" height="346" viewBox="0 0 346 346" fill="none" xmlns="http://www.w3.org/2000/svg">
<mask id="mask0_2002_1311" style="mask-type:alpha" maskUnits="userSpaceOnUse" x="11" y="11" width="316" height="322">
<path d="M323.624 142.735C325.526 153.269 326.55 164.241 326.55 175.653C326.55 224.665 308.993 265.923 278.562 293.94C251.935 318.519 215.505 332.93 172.053 332.93C109.142 332.93 54.7168 296.866 28.2358 244.27C17.3361 222.544 11.1182 197.965 11.1182 171.996C11.1082 146.899 16.9703 122.148 28.2358 99.7214C54.7168 47.125 109.142 11.061 172.053 11.061C215.432 11.061 251.862 27.0082 279.733 52.9772L233.574 99.1361C216.895 83.189 195.681 75.0691 172.053 75.0691C130.137 75.0691 94.6579 103.379 82.0025 141.418C78.7838 151.074 76.955 161.389 76.955 171.996C76.955 182.603 78.7838 192.917 82.0025 202.573C94.6578 240.612 130.137 268.922 172.053 268.922C193.706 268.922 212.14 263.216 226.551 253.56C243.595 242.148 254.934 225.104 258.665 204.987H172.053V142.735H323.624Z" fill="#D9D9D9"/>
</mask>
<g mask="url(#mask0_2002_1311)">
<g filter="url(#filter0_f_2002_1311)">
<path d="M327.565 176.668C327.565 165.257 326.54 154.284 324.638 143.75H173.067V206.002H259.679C255.949 226.119 244.61 243.164 227.566 254.575V294.955H279.577C310.008 266.938 327.565 225.68 327.565 176.668Z" fill="#4285F4"/>
<path d="M173.067 333.946C216.52 333.946 252.95 319.535 279.577 294.956L227.566 254.576C213.155 264.232 194.72 269.938 173.067 269.938C131.151 269.938 95.6726 241.628 83.0173 203.589H29.2505V245.285C55.7315 297.882 110.157 333.946 173.067 333.946Z" fill="#34A853"/>
<path d="M83.0172 203.589C79.7985 193.933 77.9697 183.618 77.9697 173.011C77.9697 162.404 79.7985 152.09 83.0172 142.434V100.737H29.2504C17.985 123.163 12.1229 147.914 12.1328 173.011C12.1328 198.98 18.3508 223.559 29.2504 245.285L83.0172 203.589Z" fill="#FBBC05"/>
<path d="M173.067 76.0845C196.696 76.0845 217.91 84.2044 234.588 100.152L280.747 53.9926C252.876 28.0236 216.447 12.0764 173.067 12.0764C110.157 12.0764 55.7315 48.1404 29.2505 100.737L83.0173 142.433C95.6726 104.394 131.151 76.0845 173.067 76.0845Z" fill="#EA4335"/>
</g>
<g filter="url(#filter1_f_2002_1311)">
<path d="M327.565 176.668C327.565 165.257 326.54 154.284 324.638 143.75H173.067V206.002H259.679C255.949 226.119 244.61 243.164 227.566 254.575V294.955H279.577C310.008 266.938 327.565 225.68 327.565 176.668Z" fill="#4285F4"/>
<path d="M173.067 333.946C216.52 333.946 252.95 319.535 279.577 294.956L227.566 254.576C213.155 264.232 194.72 269.938 173.067 269.938C131.151 269.938 95.6726 241.628 83.0173 203.589H29.2505V245.285C55.7315 297.882 110.157 333.946 173.067 333.946Z" fill="#34A853"/>
<path d="M83.0172 203.589C79.7985 193.933 77.9697 183.618 77.9697 173.011C77.9697 162.404 79.7985 152.09 83.0172 142.434V100.737H29.2504C17.985 123.163 12.1229 147.914 12.1328 173.011C12.1328 198.98 18.3508 223.559 29.2504 245.285L83.0172 203.589Z" fill="#FBBC05"/>
<path d="M173.067 76.0845C196.696 76.0845 217.91 84.2044 234.588 100.152L280.747 53.9926C252.876 28.0236 216.447 12.0764 173.067 12.0764C110.157 12.0764 55.7315 48.1404 29.2505 100.737L83.0173 142.433C95.6726 104.394 131.151 76.0845 173.067 76.0845Z" fill="#EA4335"/>
</g>
<g filter="url(#filter2_f_2002_1311)">
<path d="M327.565 176.668C327.565 165.257 326.54 154.284 324.638 143.75H173.067V206.002H259.679C255.949 226.119 244.61 243.164 227.566 254.575V294.955H279.577C310.008 266.938 327.565 225.68 327.565 176.668Z" fill="#4285F4"/>
<path d="M173.067 333.946C216.52 333.946 252.95 319.535 279.577 294.956L227.566 254.576C213.155 264.232 194.72 269.938 173.067 269.938C131.151 269.938 95.6726 241.628 83.0173 203.589H29.2505V245.285C55.7315 297.882 110.157 333.946 173.067 333.946Z" fill="#34A853"/>
<path d="M83.0172 203.589C79.7985 193.933 77.9697 183.618 77.9697 173.011C77.9697 162.404 79.7985 152.09 83.0172 142.434V100.737H29.2504C17.985 123.163 12.1229 147.914 12.1328 173.011C12.1328 198.98 18.3508 223.559 29.2504 245.285L83.0172 203.589Z" fill="#FBBC05"/>
<path d="M173.067 76.0845C196.696 76.0845 217.91 84.2044 234.588 100.152L280.747 53.9926C252.876 28.0236 216.447 12.0764 173.067 12.0764C110.157 12.0764 55.7315 48.1404 29.2505 100.737L83.0173 142.433C95.6726 104.394 131.151 76.0845 173.067 76.0845Z" fill="#EA4335"/>
</g>
<g filter="url(#filter3_f_2002_1311)">
<path d="M327.565 176.668C327.565 165.257 326.54 154.284 324.638 143.75H173.067V206.002H259.679C255.949 226.119 244.61 243.164 227.566 254.575V294.955H279.577C310.008 266.938 327.565 225.68 327.565 176.668Z" fill="#4285F4"/>
<path d="M173.067 333.946C216.52 333.946 252.95 319.535 279.577 294.956L227.566 254.576C213.155 264.232 194.72 269.938 173.067 269.938C131.151 269.938 95.6726 241.628 83.0173 203.589H29.2505V245.285C55.7315 297.882 110.157 333.946 173.067 333.946Z" fill="#34A853"/>
<path d="M83.0172 203.589C79.7985 193.933 77.9697 183.618 77.9697 173.011C77.9697 162.404 79.7985 152.09 83.0172 142.434V100.737H29.2504C17.985 123.163 12.1229 147.914 12.1328 173.011C12.1328 198.98 18.3508 223.559 29.2504 245.285L83.0172 203.589Z" fill="#FBBC05"/>
<path d="M173.067 76.0845C196.696 76.0845 217.91 84.2044 234.588 100.152L280.747 53.9926C252.876 28.0236 216.447 12.0764 173.067 12.0764C110.157 12.0764 55.7315 48.1404 29.2505 100.737L83.0173 142.433C95.6726 104.394 131.151 76.0845 173.067 76.0845Z" fill="#EA4335"/>
</g>
<g filter="url(#filter4_f_2002_1311)">
<path d="M327.565 176.668C327.565 165.257 326.54 154.284 324.638 143.75H173.067V206.002H259.679C255.949 226.119 244.61 243.164 227.566 254.575V294.955H279.577C310.008 266.938 327.565 225.68 327.565 176.668Z" fill="#4285F4"/>
<path d="M173.067 333.946C216.52 333.946 252.95 319.535 279.577 294.956L227.566 254.576C213.155 264.232 194.72 269.938 173.067 269.938C131.151 269.938 95.6726 241.628 83.0173 203.589H29.2505V245.285C55.7315 297.882 110.157 333.946 173.067 333.946Z" fill="#34A853"/>
<path d="M83.0172 203.589C79.7985 193.933 77.9697 183.618 77.9697 173.011C77.9697 162.404 79.7985 152.09 83.0172 142.434V100.737H29.2504C17.985 123.163 12.1229 147.914 12.1328 173.011C12.1328 198.98 18.3508 223.559 29.2504 245.285L83.0172 203.589Z" fill="#FBBC05"/>
<path d="M173.067 76.0845C196.696 76.0845 217.91 84.2044 234.588 100.152L280.747 53.9926C252.876 28.0236 216.447 12.0764 173.067 12.0764C110.157 12.0764 55.7315 48.1404 29.2505 100.737L83.0173 142.433C95.6726 104.394 131.151 76.0845 173.067 76.0845Z" fill="#EA4335"/>
</g>
<g filter="url(#filter5_f_2002_1311)">
<path d="M327.565 176.668C327.565 165.257 326.54 154.284 324.638 143.75H173.067V206.002H259.679C255.949 226.119 244.61 243.164 227.566 254.575V294.955H279.577C310.008 266.938 327.565 225.68 327.565 176.668Z" fill="#4285F4"/>
<path d="M173.067 333.946C216.52 333.946 252.95 319.535 279.577 294.956L227.566 254.576C213.155 264.232 194.72 269.938 173.067 269.938C131.151 269.938 95.6726 241.628 83.0173 203.589H29.2505V245.285C55.7315 297.882 110.157 333.946 173.067 333.946Z" fill="#34A853"/>
<path d="M83.0172 203.589C79.7985 193.933 77.9697 183.618 77.9697 173.011C77.9697 162.404 79.7985 152.09 83.0172 142.434V100.737H29.2504C17.985 123.163 12.1229 147.914 12.1328 173.011C12.1328 198.98 18.3508 223.559 29.2504 245.285L83.0172 203.589Z" fill="#FBBC05"/>
<path d="M173.067 76.0845C196.696 76.0845 217.91 84.2044 234.588 100.152L280.747 53.9926C252.876 28.0236 216.447 12.0764 173.067 12.0764C110.157 12.0764 55.7315 48.1404 29.2505 100.737L83.0173 142.433C95.6726 104.394 131.151 76.0845 173.067 76.0845Z" fill="#EA4335"/>
</g>
<g filter="url(#filter6_f_2002_1311)">
<path d="M327.565 176.668C327.565 165.257 326.54 154.284 324.638 143.75H173.067V206.002H259.679C255.949 226.119 244.61 243.164 227.566 254.575V294.955H279.577C310.008 266.938 327.565 225.68 327.565 176.668Z" fill="#4285F4"/>
<path d="M173.067 333.946C216.52 333.946 252.95 319.535 279.577 294.956L227.566 254.576C213.155 264.232 194.72 269.938 173.067 269.938C131.151 269.938 95.6726 241.628 83.0173 203.589H29.2505V245.285C55.7315 297.882 110.157 333.946 173.067 333.946Z" fill="#34A853"/>
<path d="M83.0172 203.589C79.7985 193.933 77.9697 183.618 77.9697 173.011C77.9697 162.404 79.7985 152.09 83.0172 142.434V100.737H29.2504C17.985 123.163 12.1229 147.914 12.1328 173.011C12.1328 198.98 18.3508 223.559 29.2504 245.285L83.0172 203.589Z" fill="#FBBC05"/>
<path d="M173.067 76.0845C196.696 76.0845 217.91 84.2044 234.588 100.152L280.747 53.9926C252.876 28.0236 216.447 12.0764 173.067 12.0764C110.157 12.0764 55.7315 48.1404 29.2505 100.737L83.0173 142.433C95.6726 104.394 131.151 76.0845 173.067 76.0845Z" fill="#EA4335"/>
</g>
<g filter="url(#filter7_f_2002_1311)">
<path d="M327.565 176.668C327.565 165.257 326.54 154.284 324.638 143.75H173.067V206.002H259.679C255.949 226.119 244.61 243.164 227.566 254.575V294.955H279.577C310.008 266.938 327.565 225.68 327.565 176.668Z" fill="#4285F4"/>
<path d="M173.067 333.946C216.52 333.946 252.95 319.535 279.577 294.956L227.566 254.576C213.155 264.232 194.72 269.938 173.067 269.938C131.151 269.938 95.6726 241.628 83.0173 203.589H29.2505V245.285C55.7315 297.882 110.157 333.946 173.067 333.946Z" fill="#34A853"/>
<path d="M83.0172 203.589C79.7985 193.933 77.9697 183.618 77.9697 173.011C77.9697 162.404 79.7985 152.09 83.0172 142.434V100.737H29.2504C17.985 123.163 12.1229 147.914 12.1328 173.011C12.1328 198.98 18.3508 223.559 29.2504 245.285L83.0172 203.589Z" fill="#FBBC05"/>
<path d="M173.067 76.0845C196.696 76.0845 217.91 84.2044 234.588 100.152L280.747 53.9926C252.876 28.0236 216.447 12.0764 173.067 12.0764C110.157 12.0764 55.7315 48.1404 29.2505 100.737L83.0173 142.433C95.6726 104.394 131.151 76.0845 173.067 76.0845Z" fill="#EA4335"/>
</g>
<g filter="url(#filter8_f_2002_1311)">
<path d="M327.565 176.668C327.565 165.257 326.54 154.284 324.638 143.75H173.067V206.002H259.679C255.949 226.119 244.61 243.164 227.566 254.575V294.955H279.577C310.008 266.938 327.565 225.68 327.565 176.668Z" fill="#4285F4"/>
<path d="M173.067 333.946C216.52 333.946 252.95 319.535 279.577 294.956L227.566 254.576C213.155 264.232 194.72 269.938 173.067 269.938C131.151 269.938 95.6726 241.628 83.0173 203.589H29.2505V245.285C55.7315 297.882 110.157 333.946 173.067 333.946Z" fill="#34A853"/>
<path d="M83.0172 203.589C79.7985 193.933 77.9697 183.618 77.9697 173.011C77.9697 162.404 79.7985 152.09 83.0172 142.434V100.737H29.2504C17.985 123.163 12.1229 147.914 12.1328 173.011C12.1328 198.98 18.3508 223.559 29.2504 245.285L83.0172 203.589Z" fill="#FBBC05"/>
<path d="M173.067 76.0845C196.696 76.0845 217.91 84.2044 234.588 100.152L280.747 53.9926C252.876 28.0236 216.447 12.0764 173.067 12.0764C110.157 12.0764 55.7315 48.1404 29.2505 100.737L83.0173 142.433C95.6726 104.394 131.151 76.0845 173.067 76.0845Z" fill="#EA4335"/>
</g>
<g filter="url(#filter9_f_2002_1311)">
<path d="M327.565 176.668C327.565 165.257 326.54 154.284 324.638 143.75H173.067V206.002H259.679C255.949 226.119 244.61 243.164 227.566 254.575V294.955H279.577C310.008 266.938 327.565 225.68 327.565 176.668Z" fill="#4285F4"/>
<path d="M173.067 333.946C216.52 333.946 252.95 319.535 279.577 294.956L227.566 254.576C213.155 264.232 194.72 269.938 173.067 269.938C131.151 269.938 95.6726 241.628 83.0173 203.589H29.2505V245.285C55.7315 297.882 110.157 333.946 173.067 333.946Z" fill="#34A853"/>
<path d="M83.0172 203.589C79.7985 193.933 77.9697 183.618 77.9697 173.011C77.9697 162.404 79.7985 152.09 83.0172 142.434V100.737H29.2504C17.985 123.163 12.1229 147.914 12.1328 173.011C12.1328 198.98 18.3508 223.559 29.2504 245.285L83.0172 203.589Z" fill="#FBBC05"/>
<path d="M173.067 76.0845C196.696 76.0845 217.91 84.2044 234.588 100.152L280.747 53.9926C252.876 28.0236 216.447 12.0764 173.067 12.0764C110.157 12.0764 55.7315 48.1404 29.2505 100.737L83.0173 142.433C95.6726 104.394 131.151 76.0845 173.067 76.0845Z" fill="#EA4335"/>
</g>
<g filter="url(#filter10_f_2002_1311)">
<path d="M327.565 176.668C327.565 165.257 326.54 154.284 324.638 143.75H173.067V206.002H259.679C255.949 226.119 244.61 243.164 227.566 254.575V294.955H279.577C310.008 266.938 327.565 225.68 327.565 176.668Z" fill="#4285F4"/>
<path d="M173.067 333.946C216.52 333.946 252.95 319.535 279.577 294.956L227.566 254.576C213.155 264.232 194.72 269.938 173.067 269.938C131.151 269.938 95.6726 241.628 83.0173 203.589H29.2505V245.285C55.7315 297.882 110.157 333.946 173.067 333.946Z" fill="#34A853"/>
<path d="M83.0172 203.589C79.7985 193.933 77.9697 183.618 77.9697 173.011C77.9697 162.404 79.7985 152.09 83.0172 142.434V100.737H29.2504C17.985 123.163 12.1229 147.914 12.1328 173.011C12.1328 198.98 18.3508 223.559 29.2504 245.285L83.0172 203.589Z" fill="#FBBC05"/>
<path d="M173.067 76.0845C196.696 76.0845 217.91 84.2044 234.588 100.152L280.747 53.9926C252.876 28.0236 216.447 12.0764 173.067 12.0764C110.157 12.0764 55.7315 48.1404 29.2505 100.737L83.0173 142.433C95.6726 104.394 131.151 76.0845 173.067 76.0845Z" fill="#EA4335"/>
</g>
<g filter="url(#filter11_f_2002_1311)">
<path d="M327.565 176.668C327.565 165.257 326.54 154.284 324.638 143.75H173.067V206.002H259.679C255.949 226.119 244.61 243.164 227.566 254.575V294.955H279.577C310.008 266.938 327.565 225.68 327.565 176.668Z" fill="#4285F4"/>
<path d="M173.067 333.946C216.52 333.946 252.95 319.535 279.577 294.956L227.566 254.576C213.155 264.232 194.72 269.938 173.067 269.938C131.151 269.938 95.6726 241.628 83.0173 203.589H29.2505V245.285C55.7315 297.882 110.157 333.946 173.067 333.946Z" fill="#34A853"/>
<path d="M83.0172 203.589C79.7985 193.933 77.9697 183.618 77.9697 173.011C77.9697 162.404 79.7985 152.09 83.0172 142.434V100.737H29.2504C17.985 123.163 12.1229 147.914 12.1328 173.011C12.1328 198.98 18.3508 223.559 29.2504 245.285L83.0172 203.589Z" fill="#FBBC05"/>
<path d="M173.067 76.0845C196.696 76.0845 217.91 84.2044 234.588 100.152L280.747 53.9926C252.876 28.0236 216.447 12.0764 173.067 12.0764C110.157 12.0764 55.7315 48.1404 29.2505 100.737L83.0173 142.433C95.6726 104.394 131.151 76.0845 173.067 76.0845Z" fill="#EA4335"/>
</g>
<g filter="url(#filter12_f_2002_1311)">
<path d="M327.565 176.668C327.565 165.257 326.54 154.284 324.638 143.75H173.067V206.002H259.679C255.949 226.119 244.61 243.164 227.566 254.575V294.955H279.577C310.008 266.938 327.565 225.68 327.565 176.668Z" fill="#4285F4"/>
<path d="M173.067 333.946C216.52 333.946 252.95 319.535 279.577 294.956L227.566 254.576C213.155 264.232 194.72 269.938 173.067 269.938C131.151 269.938 95.6726 241.628 83.0173 203.589H29.2505V245.285C55.7315 297.882 110.157 333.946 173.067 333.946Z" fill="#34A853"/>
<path d="M83.0172 203.589C79.7985 193.933 77.9697 183.618 77.9697 173.011C77.9697 162.404 79.7985 152.09 83.0172 142.434V100.737H29.2504C17.985 123.163 12.1229 147.914 12.1328 173.011C12.1328 198.98 18.3508 223.559 29.2504 245.285L83.0172 203.589Z" fill="#FBBC05"/>
<path d="M173.067 76.0845C196.696 76.0845 217.91 84.2044 234.588 100.152L280.747 53.9926C252.876 28.0236 216.447 12.0764 173.067 12.0764C110.157 12.0764 55.7315 48.1404 29.2505 100.737L83.0173 142.433C95.6726 104.394 131.151 76.0845 173.067 76.0845Z" fill="#EA4335"/>
</g>
<g filter="url(#filter13_f_2002_1311)">
<path d="M327.565 176.668C327.565 165.257 326.54 154.284 324.638 143.75H173.067V206.002H259.679C255.949 226.119 244.61 243.164 227.566 254.575V294.955H279.577C310.008 266.938 327.565 225.68 327.565 176.668Z" fill="#4285F4"/>
<path d="M173.067 333.946C216.52 333.946 252.95 319.535 279.577 294.956L227.566 254.576C213.155 264.232 194.72 269.938 173.067 269.938C131.151 269.938 95.6726 241.628 83.0173 203.589H29.2505V245.285C55.7315 297.882 110.157 333.946 173.067 333.946Z" fill="#34A853"/>
<path d="M83.0172 203.589C79.7985 193.933 77.9697 183.618 77.9697 173.011C77.9697 162.404 79.7985 152.09 83.0172 142.434V100.737H29.2504C17.985 123.163 12.1229 147.914 12.1328 173.011C12.1328 198.98 18.3508 223.559 29.2504 245.285L83.0172 203.589Z" fill="#FBBC05"/>
<path d="M173.067 76.0845C196.696 76.0845 217.91 84.2044 234.588 100.152L280.747 53.9926C252.876 28.0236 216.447 12.0764 173.067 12.0764C110.157 12.0764 55.7315 48.1404 29.2505 100.737L83.0173 142.433C95.6726 104.394 131.151 76.0845 173.067 76.0845Z" fill="#EA4335"/>
</g>
<g filter="url(#filter14_f_2002_1311)">
<path d="M327.565 176.668C327.565 165.257 326.54 154.284 324.638 143.75H173.067V206.002H259.679C255.949 226.119 244.61 243.164 227.566 254.575V294.955H279.577C310.008 266.938 327.565 225.68 327.565 176.668Z" fill="#4285F4"/>
<path d="M173.067 333.946C216.52 333.946 252.95 319.535 279.577 294.956L227.566 254.576C213.155 264.232 194.72 269.938 173.067 269.938C131.151 269.938 95.6726 241.628 83.0173 203.589H29.2505V245.285C55.7315 297.882 110.157 333.946 173.067 333.946Z" fill="#34A853"/>
<path d="M83.0172 203.589C79.7985 193.933 77.9697 183.618 77.9697 173.011C77.9697 162.404 79.7985 152.09 83.0172 142.434V100.737H29.2504C17.985 123.163 12.1229 147.914 12.1328 173.011C12.1328 198.98 18.3508 223.559 29.2504 245.285L83.0172 203.589Z" fill="#FBBC05"/>
<path d="M173.067 76.0845C196.696 76.0845 217.91 84.2044 234.588 100.152L280.747 53.9926C252.876 28.0236 216.447 12.0764 173.067 12.0764C110.157 12.0764 55.7315 48.1404 29.2505 100.737L83.0173 142.433C95.6726 104.394 131.151 76.0845 173.067 76.0845Z" fill="#EA4335"/>
</g>
<g filter="url(#filter15_f_2002_1311)">
<path d="M327.565 176.668C327.565 165.257 326.54 154.284 324.638 143.75H173.067V206.002H259.679C255.949 226.119 244.61 243.164 227.566 254.575V294.955H279.577C310.008 266.938 327.565 225.68 327.565 176.668Z" fill="#4285F4"/>
<path d="M173.067 333.946C216.52 333.946 252.95 319.535 279.577 294.956L227.566 254.576C213.155 264.232 194.72 269.938 173.067 269.938C131.151 269.938 95.6726 241.628 83.0173 203.589H29.2505V245.285C55.7315 297.882 110.157 333.946 173.067 333.946Z" fill="#34A853"/>
<path d="M83.0172 203.589C79.7985 193.933 77.9697 183.618 77.9697 173.011C77.9697 162.404 79.7985 152.09 83.0172 142.434V100.737H29.2504C17.985 123.163 12.1229 147.914 12.1328 173.011C12.1328 198.98 18.3508 223.559 29.2504 245.285L83.0172 203.589Z" fill="#FBBC05"/>
<path d="M173.067 76.0845C196.696 76.0845 217.91 84.2044 234.588 100.152L280.747 53.9926C252.876 28.0236 216.447 12.0764 173.067 12.0764C110.157 12.0764 55.7315 48.1404 29.2505 100.737L83.0173 142.433C95.6726 104.394 131.151 76.0845 173.067 76.0845Z" fill="#EA4335"/>
</g>
<g filter="url(#filter16_f_2002_1311)">
<path d="M327.565 176.668C327.565 165.257 326.54 154.284 324.638 143.75H173.067V206.002H259.679C255.949 226.119 244.61 243.164 227.566 254.575V294.955H279.577C310.008 266.938 327.565 225.68 327.565 176.668Z" fill="#4285F4"/>
<path d="M173.067 333.946C216.52 333.946 252.95 319.535 279.577 294.956L227.566 254.576C213.155 264.232 194.72 269.938 173.067 269.938C131.151 269.938 95.6726 241.628 83.0173 203.589H29.2505V245.285C55.7315 297.882 110.157 333.946 173.067 333.946Z" fill="#34A853"/>
<path d="M83.0172 203.589C79.7985 193.933 77.9697 183.618 77.9697 173.011C77.9697 162.404 79.7985 152.09 83.0172 142.434V100.737H29.2504C17.985 123.163 12.1229 147.914 12.1328 173.011C12.1328 198.98 18.3508 223.559 29.2504 245.285L83.0172 203.589Z" fill="#FBBC05"/>
<path d="M173.067 76.0845C196.696 76.0845 217.91 84.2044 234.588 100.152L280.747 53.9926C252.876 28.0236 216.447 12.0764 173.067 12.0764C110.157 12.0764 55.7315 48.1404 29.2505 100.737L83.0173 142.433C95.6726 104.394 131.151 76.0845 173.067 76.0845Z" fill="#EA4335"/>
</g>
<g filter="url(#filter17_f_2002_1311)">
<path d="M327.565 176.668C327.565 165.257 326.54 154.284 324.638 143.75H173.067V206.002H259.679C255.949 226.119 244.61 243.164 227.566 254.575V294.955H279.577C310.008 266.938 327.565 225.68 327.565 176.668Z" fill="#4285F4"/>
<path d="M173.067 333.946C216.52 333.946 252.95 319.535 279.577 294.956L227.566 254.576C213.155 264.232 194.72 269.938 173.067 269.938C131.151 269.938 95.6726 241.628 83.0173 203.589H29.2505V245.285C55.7315 297.882 110.157 333.946 173.067 333.946Z" fill="#34A853"/>
<path d="M83.0172 203.589C79.7985 193.933 77.9697 183.618 77.9697 173.011C77.9697 162.404 79.7985 152.09 83.0172 142.434V100.737H29.2504C17.985 123.163 12.1229 147.914 12.1328 173.011C12.1328 198.98 18.3508 223.559 29.2504 245.285L83.0172 203.589Z" fill="#FBBC05"/>
<path d="M173.067 76.0845C196.696 76.0845 217.91 84.2044 234.588 100.152L280.747 53.9926C252.876 28.0236 216.447 12.0764 173.067 12.0764C110.157 12.0764 55.7315 48.1404 29.2505 100.737L83.0173 142.433C95.6726 104.394 131.151 76.0845 173.067 76.0845Z" fill="#EA4335"/>
</g>
<g filter="url(#filter18_f_2002_1311)">
<path d="M327.565 176.668C327.565 165.257 326.54 154.284 324.638 143.75H173.067V206.002H259.679C255.949 226.119 244.61 243.164 227.566 254.575V294.955H279.577C310.008 266.938 327.565 225.68 327.565 176.668Z" fill="#4285F4"/>
<path d="M173.067 333.946C216.52 333.946 252.95 319.535 279.577 294.956L227.566 254.576C213.155 264.232 194.72 269.938 173.067 269.938C131.151 269.938 95.6726 241.628 83.0173 203.589H29.2505V245.285C55.7315 297.882 110.157 333.946 173.067 333.946Z" fill="#34A853"/>
<path d="M83.0172 203.589C79.7985 193.933 77.9697 183.618 77.9697 173.011C77.9697 162.404 79.7985 152.09 83.0172 142.434V100.737H29.2504C17.985 123.163 12.1229 147.914 12.1328 173.011C12.1328 198.98 18.3508 223.559 29.2504 245.285L83.0172 203.589Z" fill="#FBBC05"/>
<path d="M173.067 76.0845C196.696 76.0845 217.91 84.2044 234.588 100.152L280.747 53.9926C252.876 28.0236 216.447 12.0764 173.067 12.0764C110.157 12.0764 55.7315 48.1404 29.2505 100.737L83.0173 142.433C95.6726 104.394 131.151 76.0845 173.067 76.0845Z" fill="#EA4335"/>
</g>
<g filter="url(#filter19_f_2002_1311)">
<path d="M327.565 176.668C327.565 165.257 326.54 154.284 324.638 143.75H173.067V206.002H259.679C255.949 226.119 244.61 243.164 227.566 254.575V294.955H279.577C310.008 266.938 327.565 225.68 327.565 176.668Z" fill="#4285F4"/>
<path d="M173.067 333.946C216.52 333.946 252.95 319.535 279.577 294.956L227.566 254.576C213.155 264.232 194.72 269.938 173.067 269.938C131.151 269.938 95.6726 241.628 83.0173 203.589H29.2505V245.285C55.7315 297.882 110.157 333.946 173.067 333.946Z" fill="#34A853"/>
<path d="M83.0172 203.589C79.7985 193.933 77.9697 183.618 77.9697 173.011C77.9697 162.404 79.7985 152.09 83.0172 142.434V100.737H29.2504C17.985 123.163 12.1229 147.914 12.1328 173.011C12.1328 198.98 18.3508 223.559 29.2504 245.285L83.0172 203.589Z" fill="#FBBC05"/>
<path d="M173.067 76.0845C196.696 76.0845 217.91 84.2044 234.588 100.152L280.747 53.9926C252.876 28.0236 216.447 12.0764 173.067 12.0764C110.157 12.0764 55.7315 48.1404 29.2505 100.737L83.0173 142.433C95.6726 104.394 131.151 76.0845 173.067 76.0845Z" fill="#EA4335"/>
</g>
<g filter="url(#filter20_f_2002_1311)">
<path d="M327.565 176.668C327.565 165.257 326.54 154.284 324.638 143.75H173.067V206.002H259.679C255.949 226.119 244.61 243.164 227.566 254.575V294.955H279.577C310.008 266.938 327.565 225.68 327.565 176.668Z" fill="#4285F4"/>
<path d="M173.067 333.946C216.52 333.946 252.95 319.535 279.577 294.956L227.566 254.576C213.155 264.232 194.72 269.938 173.067 269.938C131.151 269.938 95.6726 241.628 83.0173 203.589H29.2505V245.285C55.7315 297.882 110.157 333.946 173.067 333.946Z" fill="#34A853"/>
<path d="M83.0172 203.589C79.7985 193.933 77.9697 183.618 77.9697 173.011C77.9697 162.404 79.7985 152.09 83.0172 142.434V100.737H29.2504C17.985 123.163 12.1229 147.914 12.1328 173.011C12.1328 198.98 18.3508 223.559 29.2504 245.285L83.0172 203.589Z" fill="#FBBC05"/>
<path d="M173.067 76.0845C196.696 76.0845 217.91 84.2044 234.588 100.152L280.747 53.9926C252.876 28.0236 216.447 12.0764 173.067 12.0764C110.157 12.0764 55.7315 48.1404 29.2505 100.737L83.0173 142.433C95.6726 104.394 131.151 76.0845 173.067 76.0845Z" fill="#EA4335"/>
</g>
<g filter="url(#filter21_f_2002_1311)">
<path d="M327.565 176.668C327.565 165.257 326.54 154.284 324.638 143.75H173.067V206.002H259.679C255.949 226.119 244.61 243.164 227.566 254.575V294.955H279.577C310.008 266.938 327.565 225.68 327.565 176.668Z" fill="#4285F4"/>
<path d="M173.067 333.946C216.52 333.946 252.95 319.535 279.577 294.956L227.566 254.576C213.155 264.232 194.72 269.938 173.067 269.938C131.151 269.938 95.6726 241.628 83.0173 203.589H29.2505V245.285C55.7315 297.882 110.157 333.946 173.067 333.946Z" fill="#34A853"/>
<path d="M83.0172 203.589C79.7985 193.933 77.9697 183.618 77.9697 173.011C77.9697 162.404 79.7985 152.09 83.0172 142.434V100.737H29.2504C17.985 123.163 12.1229 147.914 12.1328 173.011C12.1328 198.98 18.3508 223.559 29.2504 245.285L83.0172 203.589Z" fill="#FBBC05"/>
<path d="M173.067 76.0845C196.696 76.0845 217.91 84.2044 234.588 100.152L280.747 53.9926C252.876 28.0236 216.447 12.0764 173.067 12.0764C110.157 12.0764 55.7315 48.1404 29.2505 100.737L83.0173 142.433C95.6726 104.394 131.151 76.0845 173.067 76.0845Z" fill="#EA4335"/>
</g>
<g filter="url(#filter22_f_2002_1311)">
<path d="M327.565 176.668C327.565 165.257 326.54 154.284 324.638 143.75H173.067V206.002H259.679C255.949 226.119 244.61 243.164 227.566 254.575V294.955H279.577C310.008 266.938 327.565 225.68 327.565 176.668Z" fill="#4285F4"/>
<path d="M173.067 333.946C216.52 333.946 252.95 319.535 279.577 294.956L227.566 254.576C213.155 264.232 194.72 269.938 173.067 269.938C131.151 269.938 95.6726 241.628 83.0173 203.589H29.2505V245.285C55.7315 297.882 110.157 333.946 173.067 333.946Z" fill="#34A853"/>
<path d="M83.0172 203.589C79.7985 193.933 77.9697 183.618 77.9697 173.011C77.9697 162.404 79.7985 152.09 83.0172 142.434V100.737H29.2504C17.985 123.163 12.1229 147.914 12.1328 173.011C12.1328 198.98 18.3508 223.559 29.2504 245.285L83.0172 203.589Z" fill="#FBBC05"/>
<path d="M173.067 76.0845C196.696 76.0845 217.91 84.2044 234.588 100.152L280.747 53.9926C252.876 28.0236 216.447 12.0764 173.067 12.0764C110.157 12.0764 55.7315 48.1404 29.2505 100.737L83.0173 142.433C95.6726 104.394 131.151 76.0845 173.067 76.0845Z" fill="#EA4335"/>
</g>
<g filter="url(#filter23_f_2002_1311)">
<path d="M327.565 176.668C327.565 165.257 326.54 154.284 324.638 143.75H173.067V206.002H259.679C255.949 226.119 244.61 243.164 227.566 254.575V294.955H279.577C310.008 266.938 327.565 225.68 327.565 176.668Z" fill="#4285F4"/>
<path d="M173.067 333.946C216.52 333.946 252.95 319.535 279.577 294.956L227.566 254.576C213.155 264.232 194.72 269.938 173.067 269.938C131.151 269.938 95.6726 241.628 83.0173 203.589H29.2505V245.285C55.7315 297.882 110.157 333.946 173.067 333.946Z" fill="#34A853"/>
<path d="M83.0172 203.589C79.7985 193.933 77.9697 183.618 77.9697 173.011C77.9697 162.404 79.7985 152.09 83.0172 142.434V100.737H29.2504C17.985 123.163 12.1229 147.914 12.1328 173.011C12.1328 198.98 18.3508 223.559 29.2504 245.285L83.0172 203.589Z" fill="#FBBC05"/>
<path d="M173.067 76.0845C196.696 76.0845 217.91 84.2044 234.588 100.152L280.747 53.9926C252.876 28.0236 216.447 12.0764 173.067 12.0764C110.157 12.0764 55.7315 48.1404 29.2505 100.737L83.0173 142.433C95.6726 104.394 131.151 76.0845 173.067 76.0845Z" fill="#EA4335"/>
</g>
<g filter="url(#filter24_f_2002_1311)">
<path d="M327.565 176.668C327.565 165.257 326.54 154.284 324.638 143.75H173.067V206.002H259.679C255.949 226.119 244.61 243.164 227.566 254.575V294.955H279.577C310.008 266.938 327.565 225.68 327.565 176.668Z" fill="#4285F4"/>
<path d="M173.067 333.946C216.52 333.946 252.95 319.535 279.577 294.956L227.566 254.576C213.155 264.232 194.72 269.938 173.067 269.938C131.151 269.938 95.6726 241.628 83.0173 203.589H29.2505V245.285C55.7315 297.882 110.157 333.946 173.067 333.946Z" fill="#34A853"/>
<path d="M83.0172 203.589C79.7985 193.933 77.9697 183.618 77.9697 173.011C77.9697 162.404 79.7985 152.09 83.0172 142.434V100.737H29.2504C17.985 123.163 12.1229 147.914 12.1328 173.011C12.1328 198.98 18.3508 223.559 29.2504 245.285L83.0172 203.589Z" fill="#FBBC05"/>
<path d="M173.067 76.0845C196.696 76.0845 217.91 84.2044 234.588 100.152L280.747 53.9926C252.876 28.0236 216.447 12.0764 173.067 12.0764C110.157 12.0764 55.7315 48.1404 29.2505 100.737L83.0173 142.433C95.6726 104.394 131.151 76.0845 173.067 76.0845Z" fill="#EA4335"/>
</g>
<g filter="url(#filter25_f_2002_1311)">
<path d="M327.565 176.668C327.565 165.257 326.54 154.284 324.638 143.75H173.067V206.002H259.679C255.949 226.119 244.61 243.164 227.566 254.575V294.955H279.577C310.008 266.938 327.565 225.68 327.565 176.668Z" fill="#4285F4"/>
<path d="M173.067 333.946C216.52 333.946 252.95 319.535 279.577 294.956L227.566 254.576C213.155 264.232 194.72 269.938 173.067 269.938C131.151 269.938 95.6726 241.628 83.0173 203.589H29.2505V245.285C55.7315 297.882 110.157 333.946 173.067 333.946Z" fill="#34A853"/>
<path d="M83.0172 203.589C79.7985 193.933 77.9697 183.618 77.9697 173.011C77.9697 162.404 79.7985 152.09 83.0172 142.434V100.737H29.2504C17.985 123.163 12.1229 147.914 12.1328 173.011C12.1328 198.98 18.3508 223.559 29.2504 245.285L83.0172 203.589Z" fill="#FBBC05"/>
<path d="M173.067 76.0845C196.696 76.0845 217.91 84.2044 234.588 100.152L280.747 53.9926C252.876 28.0236 216.447 12.0764 173.067 12.0764C110.157 12.0764 55.7315 48.1404 29.2505 100.737L83.0173 142.433C95.6726 104.394 131.151 76.0845 173.067 76.0845Z" fill="#EA4335"/>
</g>
<g filter="url(#filter26_f_2002_1311)">
<path d="M327.565 176.668C327.565 165.257 326.54 154.284 324.638 143.75H173.067V206.002H259.679C255.949 226.119 244.61 243.164 227.566 254.575V294.955H279.577C310.008 266.938 327.565 225.68 327.565 176.668Z" fill="#4285F4"/>
<path d="M173.067 333.946C216.52 333.946 252.95 319.535 279.577 294.956L227.566 254.576C213.155 264.232 194.72 269.938 173.067 269.938C131.151 269.938 95.6726 241.628 83.0173 203.589H29.2505V245.285C55.7315 297.882 110.157 333.946 173.067 333.946Z" fill="#34A853"/>
<path d="M83.0172 203.589C79.7985 193.933 77.9697 183.618 77.9697 173.011C77.9697 162.404 79.7985 152.09 83.0172 142.434V100.737H29.2504C17.985 123.163 12.1229 147.914 12.1328 173.011C12.1328 198.98 18.3508 223.559 29.2504 245.285L83.0172 203.589Z" fill="#FBBC05"/>
<path d="M173.067 76.0845C196.696 76.0845 217.91 84.2044 234.588 100.152L280.747 53.9926C252.876 28.0236 216.447 12.0764 173.067 12.0764C110.157 12.0764 55.7315 48.1404 29.2505 100.737L83.0173 142.433C95.6726 104.394 131.151 76.0845 173.067 76.0845Z" fill="#EA4335"/>
</g>
<g filter="url(#filter27_f_2002_1311)">
<path d="M327.565 176.668C327.565 165.257 326.54 154.284 324.638 143.75H173.067V206.002H259.679C255.949 226.119 244.61 243.164 227.566 254.575V294.955H279.577C310.008 266.938 327.565 225.68 327.565 176.668Z" fill="#4285F4"/>
<path d="M173.067 333.946C216.52 333.946 252.95 319.535 279.577 294.956L227.566 254.576C213.155 264.232 194.72 269.938 173.067 269.938C131.151 269.938 95.6726 241.628 83.0173 203.589H29.2505V245.285C55.7315 297.882 110.157 333.946 173.067 333.946Z" fill="#34A853"/>
<path d="M83.0172 203.589C79.7985 193.933 77.9697 183.618 77.9697 173.011C77.9697 162.404 79.7985 152.09 83.0172 142.434V100.737H29.2504C17.985 123.163 12.1229 147.914 12.1328 173.011C12.1328 198.98 18.3508 223.559 29.2504 245.285L83.0172 203.589Z" fill="#FBBC05"/>
<path d="M173.067 76.0845C196.696 76.0845 217.91 84.2044 234.588 100.152L280.747 53.9926C252.876 28.0236 216.447 12.0764 173.067 12.0764C110.157 12.0764 55.7315 48.1404 29.2505 100.737L83.0173 142.433C95.6726 104.394 131.151 76.0845 173.067 76.0845Z" fill="#EA4335"/>
</g>
<g filter="url(#filter28_f_2002_1311)">
<path d="M327.565 176.668C327.565 165.257 326.54 154.284 324.638 143.75H173.067V206.002H259.679C255.949 226.119 244.61 243.164 227.566 254.575V294.955H279.577C310.008 266.938 327.565 225.68 327.565 176.668Z" fill="#4285F4"/>
<path d="M173.067 333.946C216.52 333.946 252.95 319.535 279.577 294.956L227.566 254.576C213.155 264.232 194.72 269.938 173.067 269.938C131.151 269.938 95.6726 241.628 83.0173 203.589H29.2505V245.285C55.7315 297.882 110.157 333.946 173.067 333.946Z" fill="#34A853"/>
<path d="M83.0172 203.589C79.7985 193.933 77.9697 183.618 77.9697 173.011C77.9697 162.404 79.7985 152.09 83.0172 142.434V100.737H29.2504C17.985 123.163 12.1229 147.914 12.1328 173.011C12.1328 198.98 18.3508 223.559 29.2504 245.285L83.0172 203.589Z" fill="#FBBC05"/>
<path d="M173.067 76.0845C196.696 76.0845 217.91 84.2044 234.588 100.152L280.747 53.9926C252.876 28.0236 216.447 12.0764 173.067 12.0764C110.157 12.0764 55.7315 48.1404 29.2505 100.737L83.0173 142.433C95.6726 104.394 131.151 76.0845 173.067 76.0845Z" fill="#EA4335"/>
</g>
<g filter="url(#filter29_f_2002_1311)">
<path d="M327.565 176.668C327.565 165.257 326.54 154.284 324.638 143.75H173.067V206.002H259.679C255.949 226.119 244.61 243.164 227.566 254.575V294.955H279.577C310.008 266.938 327.565 225.68 327.565 176.668Z" fill="#4285F4"/>
<path d="M173.067 333.946C216.52 333.946 252.95 319.535 279.577 294.956L227.566 254.576C213.155 264.232 194.72 269.938 173.067 269.938C131.151 269.938 95.6726 241.628 83.0173 203.589H29.2505V245.285C55.7315 297.882 110.157 333.946 173.067 333.946Z" fill="#34A853"/>
<path d="M83.0172 203.589C79.7985 193.933 77.9697 183.618 77.9697 173.011C77.9697 162.404 79.7985 152.09 83.0172 142.434V100.737H29.2504C17.985 123.163 12.1229 147.914 12.1328 173.011C12.1328 198.98 18.3508 223.559 29.2504 245.285L83.0172 203.589Z" fill="#FBBC05"/>
<path d="M173.067 76.0845C196.696 76.0845 217.91 84.2044 234.588 100.152L280.747 53.9926C252.876 28.0236 216.447 12.0764 173.067 12.0764C110.157 12.0764 55.7315 48.1404 29.2505 100.737L83.0173 142.433C95.6726 104.394 131.151 76.0845 173.067 76.0845Z" fill="#EA4335"/>
</g>
<g filter="url(#filter30_f_2002_1311)">
<path d="M327.565 176.668C327.565 165.257 326.54 154.284 324.638 143.75H173.067V206.002H259.679C255.949 226.119 244.61 243.164 227.566 254.575V294.955H279.577C310.008 266.938 327.565 225.68 327.565 176.668Z" fill="#4285F4"/>
<path d="M173.067 333.946C216.52 333.946 252.95 319.535 279.577 294.956L227.566 254.576C213.155 264.232 194.72 269.938 173.067 269.938C131.151 269.938 95.6726 241.628 83.0173 203.589H29.2505V245.285C55.7315 297.882 110.157 333.946 173.067 333.946Z" fill="#34A853"/>
<path d="M83.0172 203.589C79.7985 193.933 77.9697 183.618 77.9697 173.011C77.9697 162.404 79.7985 152.09 83.0172 142.434V100.737H29.2504C17.985 123.163 12.1229 147.914 12.1328 173.011C12.1328 198.98 18.3508 223.559 29.2504 245.285L83.0172 203.589Z" fill="#FBBC05"/>
<path d="M173.067 76.0845C196.696 76.0845 217.91 84.2044 234.588 100.152L280.747 53.9926C252.876 28.0236 216.447 12.0764 173.067 12.0764C110.157 12.0764 55.7315 48.1404 29.2505 100.737L83.0173 142.433C95.6726 104.394 131.151 76.0845 173.067 76.0845Z" fill="#EA4335"/>
</g>
<g filter="url(#filter31_f_2002_1311)">
<path d="M327.565 176.668C327.565 165.257 326.54 154.284 324.638 143.75H173.067V206.002H259.679C255.949 226.119 244.61 243.164 227.566 254.575V294.955H279.577C310.008 266.938 327.565 225.68 327.565 176.668Z" fill="#4285F4"/>
<path d="M173.067 333.946C216.52 333.946 252.95 319.535 279.577 294.956L227.566 254.576C213.155 264.232 194.72 269.938 173.067 269.938C131.151 269.938 95.6726 241.628 83.0173 203.589H29.2505V245.285C55.7315 297.882 110.157 333.946 173.067 333.946Z" fill="#34A853"/>
<path d="M83.0172 203.589C79.7985 193.933 77.9697 183.618 77.9697 173.011C77.9697 162.404 79.7985 152.09 83.0172 142.434V100.737H29.2504C17.985 123.163 12.1229 147.914 12.1328 173.011C12.1328 198.98 18.3508 223.559 29.2504 245.285L83.0172 203.589Z" fill="#FBBC05"/>
<path d="M173.067 76.0845C196.696 76.0845 217.91 84.2044 234.588 100.152L280.747 53.9926C252.876 28.0236 216.447 12.0764 173.067 12.0764C110.157 12.0764 55.7315 48.1404 29.2505 100.737L83.0173 142.433C95.6726 104.394 131.151 76.0845 173.067 76.0845Z" fill="#EA4335"/>
</g>
<g filter="url(#filter32_f_2002_1311)">
<path d="M327.565 176.668C327.565 165.257 326.54 154.284 324.638 143.75H173.067V206.002H259.679C255.949 226.119 244.61 243.164 227.566 254.575V294.955H279.577C310.008 266.938 327.565 225.68 327.565 176.668Z" fill="#4285F4"/>
<path d="M173.067 333.946C216.52 333.946 252.95 319.535 279.577 294.956L227.566 254.576C213.155 264.232 194.72 269.938 173.067 269.938C131.151 269.938 95.6726 241.628 83.0173 203.589H29.2505V245.285C55.7315 297.882 110.157 333.946 173.067 333.946Z" fill="#34A853"/>
<path d="M83.0172 203.589C79.7985 193.933 77.9697 183.618 77.9697 173.011C77.9697 162.404 79.7985 152.09 83.0172 142.434V100.737H29.2504C17.985 123.163 12.1229 147.914 12.1328 173.011C12.1328 198.98 18.3508 223.559 29.2504 245.285L83.0172 203.589Z" fill="#FBBC05"/>
<path d="M173.067 76.0845C196.696 76.0845 217.91 84.2044 234.588 100.152L280.747 53.9926C252.876 28.0236 216.447 12.0764 173.067 12.0764C110.157 12.0764 55.7315 48.1404 29.2505 100.737L83.0173 142.433C95.6726 104.394 131.151 76.0845 173.067 76.0845Z" fill="#EA4335"/>
</g>
<g filter="url(#filter33_f_2002_1311)">
<path d="M327.565 176.668C327.565 165.257 326.54 154.284 324.638 143.75H173.067V206.002H259.679C255.949 226.119 244.61 243.164 227.566 254.575V294.955H279.577C310.008 266.938 327.565 225.68 327.565 176.668Z" fill="#4285F4"/>
<path d="M173.067 333.946C216.52 333.946 252.95 319.535 279.577 294.956L227.566 254.576C213.155 264.232 194.72 269.938 173.067 269.938C131.151 269.938 95.6726 241.628 83.0173 203.589H29.2505V245.285C55.7315 297.882 110.157 333.946 173.067 333.946Z" fill="#34A853"/>
<path d="M83.0172 203.589C79.7985 193.933 77.9697 183.618 77.9697 173.011C77.9697 162.404 79.7985 152.09 83.0172 142.434V100.737H29.2504C17.985 123.163 12.1229 147.914 12.1328 173.011C12.1328 198.98 18.3508 223.559 29.2504 245.285L83.0172 203.589Z" fill="#FBBC05"/>
<path d="M173.067 76.0845C196.696 76.0845 217.91 84.2044 234.588 100.152L280.747 53.9926C252.876 28.0236 216.447 12.0764 173.067 12.0764C110.157 12.0764 55.7315 48.1404 29.2505 100.737L83.0173 142.433C95.6726 104.394 131.151 76.0845 173.067 76.0845Z" fill="#EA4335"/>
</g>
<g filter="url(#filter34_f_2002_1311)">
<path d="M327.565 176.668C327.565 165.257 326.54 154.284 324.638 143.75H173.067V206.002H259.679C255.949 226.119 244.61 243.164 227.566 254.575V294.955H279.577C310.008 266.938 327.565 225.68 327.565 176.668Z" fill="#4285F4"/>
<path d="M173.067 333.946C216.52 333.946 252.95 319.535 279.577 294.956L227.566 254.576C213.155 264.232 194.72 269.938 173.067 269.938C131.151 269.938 95.6726 241.628 83.0173 203.589H29.2505V245.285C55.7315 297.882 110.157 333.946 173.067 333.946Z" fill="#34A853"/>
<path d="M83.0172 203.589C79.7985 193.933 77.9697 183.618 77.9697 173.011C77.9697 162.404 79.7985 152.09 83.0172 142.434V100.737H29.2504C17.985 123.163 12.1229 147.914 12.1328 173.011C12.1328 198.98 18.3508 223.559 29.2504 245.285L83.0172 203.589Z" fill="#FBBC05"/>
<path d="M173.067 76.0845C196.696 76.0845 217.91 84.2044 234.588 100.152L280.747 53.9926C252.876 28.0236 216.447 12.0764 173.067 12.0764C110.157 12.0764 55.7315 48.1404 29.2505 100.737L83.0173 142.433C95.6726 104.394 131.151 76.0845 173.067 76.0845Z" fill="#EA4335"/>
</g>
<g filter="url(#filter35_f_2002_1311)">
<path d="M327.565 176.668C327.565 165.257 326.54 154.284 324.638 143.75H173.067V206.002H259.679C255.949 226.119 244.61 243.164 227.566 254.575V294.955H279.577C310.008 266.938 327.565 225.68 327.565 176.668Z" fill="#4285F4"/>
<path d="M173.067 333.946C216.52 333.946 252.95 319.535 279.577 294.956L227.566 254.576C213.155 264.232 194.72 269.938 173.067 269.938C131.151 269.938 95.6726 241.628 83.0173 203.589H29.2505V245.285C55.7315 297.882 110.157 333.946 173.067 333.946Z" fill="#34A853"/>
<path d="M83.0172 203.589C79.7985 193.933 77.9697 183.618 77.9697 173.011C77.9697 162.404 79.7985 152.09 83.0172 142.434V100.737H29.2504C17.985 123.163 12.1229 147.914 12.1328 173.011C12.1328 198.98 18.3508 223.559 29.2504 245.285L83.0172 203.589Z" fill="#FBBC05"/>
<path d="M173.067 76.0845C196.696 76.0845 217.91 84.2044 234.588 100.152L280.747 53.9926C252.876 28.0236 216.447 12.0764 173.067 12.0764C110.157 12.0764 55.7315 48.1404 29.2505 100.737L83.0173 142.433C95.6726 104.394 131.151 76.0845 173.067 76.0845Z" fill="#EA4335"/>
</g>
<g filter="url(#filter36_f_2002_1311)">
<path d="M327.565 176.668C327.565 165.257 326.54 154.284 324.638 143.75H173.067V206.002H259.679C255.949 226.119 244.61 243.164 227.566 254.575V294.955H279.577C310.008 266.938 327.565 225.68 327.565 176.668Z" fill="#4285F4"/>
<path d="M173.067 333.946C216.52 333.946 252.95 319.535 279.577 294.956L227.566 254.576C213.155 264.232 194.72 269.938 173.067 269.938C131.151 269.938 95.6726 241.628 83.0173 203.589H29.2505V245.285C55.7315 297.882 110.157 333.946 173.067 333.946Z" fill="#34A853"/>
<path d="M83.0172 203.589C79.7985 193.933 77.9697 183.618 77.9697 173.011C77.9697 162.404 79.7985 152.09 83.0172 142.434V100.737H29.2504C17.985 123.163 12.1229 147.914 12.1328 173.011C12.1328 198.98 18.3508 223.559 29.2504 245.285L83.0172 203.589Z" fill="#FBBC05"/>
<path d="M173.067 76.0845C196.696 76.0845 217.91 84.2044 234.588 100.152L280.747 53.9926C252.876 28.0236 216.447 12.0764 173.067 12.0764C110.157 12.0764 55.7315 48.1404 29.2505 100.737L83.0173 142.433C95.6726 104.394 131.151 76.0845 173.067 76.0845Z" fill="#EA4335"/>
</g>
<g filter="url(#filter37_f_2002_1311)">
<path d="M327.565 176.668C327.565 165.257 326.54 154.284 324.638 143.75H173.067V206.002H259.679C255.949 226.119 244.61 243.164 227.566 254.575V294.955H279.577C310.008 266.938 327.565 225.68 327.565 176.668Z" fill="#4285F4"/>
<path d="M173.067 333.946C216.52 333.946 252.95 319.535 279.577 294.956L227.566 254.576C213.155 264.232 194.72 269.938 173.067 269.938C131.151 269.938 95.6726 241.628 83.0173 203.589H29.2505V245.285C55.7315 297.882 110.157 333.946 173.067 333.946Z" fill="#34A853"/>
<path d="M83.0172 203.589C79.7985 193.933 77.9697 183.618 77.9697 173.011C77.9697 162.404 79.7985 152.09 83.0172 142.434V100.737H29.2504C17.985 123.163 12.1229 147.914 12.1328 173.011C12.1328 198.98 18.3508 223.559 29.2504 245.285L83.0172 203.589Z" fill="#FBBC05"/>
<path d="M173.067 76.0845C196.696 76.0845 217.91 84.2044 234.588 100.152L280.747 53.9926C252.876 28.0236 216.447 12.0764 173.067 12.0764C110.157 12.0764 55.7315 48.1404 29.2505 100.737L83.0173 142.433C95.6726 104.394 131.151 76.0845 173.067 76.0845Z" fill="#EA4335"/>
</g>
<g filter="url(#filter38_f_2002_1311)">
<path d="M327.565 176.668C327.565 165.257 326.54 154.284 324.638 143.75H173.067V206.002H259.679C255.949 226.119 244.61 243.164 227.566 254.575V294.955H279.577C310.008 266.938 327.565 225.68 327.565 176.668Z" fill="#4285F4"/>
<path d="M173.067 333.946C216.52 333.946 252.95 319.535 279.577 294.956L227.566 254.576C213.155 264.232 194.72 269.938 173.067 269.938C131.151 269.938 95.6726 241.628 83.0173 203.589H29.2505V245.285C55.7315 297.882 110.157 333.946 173.067 333.946Z" fill="#34A853"/>
<path d="M83.0172 203.589C79.7985 193.933 77.9697 183.618 77.9697 173.011C77.9697 162.404 79.7985 152.09 83.0172 142.434V100.737H29.2504C17.985 123.163 12.1229 147.914 12.1328 173.011C12.1328 198.98 18.3508 223.559 29.2504 245.285L83.0172 203.589Z" fill="#FBBC05"/>
<path d="M173.067 76.0845C196.696 76.0845 217.91 84.2044 234.588 100.152L280.747 53.9926C252.876 28.0236 216.447 12.0764 173.067 12.0764C110.157 12.0764 55.7315 48.1404 29.2505 100.737L83.0173 142.433C95.6726 104.394 131.151 76.0845 173.067 76.0845Z" fill="#EA4335"/>
</g>
<g filter="url(#filter39_f_2002_1311)">
<path d="M327.565 176.668C327.565 165.257 326.54 154.284 324.638 143.75H173.067V206.002H259.679C255.949 226.119 244.61 243.164 227.566 254.575V294.955H279.577C310.008 266.938 327.565 225.68 327.565 176.668Z" fill="#4285F4"/>
<path d="M173.067 333.946C216.52 333.946 252.95 319.535 279.577 294.956L227.566 254.576C213.155 264.232 194.72 269.938 173.067 269.938C131.151 269.938 95.6726 241.628 83.0173 203.589H29.2505V245.285C55.7315 297.882 110.157 333.946 173.067 333.946Z" fill="#34A853"/>
<path d="M83.0172 203.589C79.7985 193.933 77.9697 183.618 77.9697 173.011C77.9697 162.404 79.7985 152.09 83.0172 142.434V100.737H29.2504C17.985 123.163 12.1229 147.914 12.1328 173.011C12.1328 198.98 18.3508 223.559 29.2504 245.285L83.0172 203.589Z" fill="#FBBC05"/>
<path d="M173.067 76.0845C196.696 76.0845 217.91 84.2044 234.588 100.152L280.747 53.9926C252.876 28.0236 216.447 12.0764 173.067 12.0764C110.157 12.0764 55.7315 48.1404 29.2505 100.737L83.0173 142.433C95.6726 104.394 131.151 76.0845 173.067 76.0845Z" fill="#EA4335"/>
</g>
<g filter="url(#filter40_f_2002_1311)">
<path d="M327.565 176.668C327.565 165.257 326.54 154.284 324.638 143.75H173.067V206.002H259.679C255.949 226.119 244.61 243.164 227.566 254.575V294.955H279.577C310.008 266.938 327.565 225.68 327.565 176.668Z" fill="#4285F4"/>
<path d="M173.067 333.946C216.52 333.946 252.95 319.535 279.577 294.956L227.566 254.576C213.155 264.232 194.72 269.938 173.067 269.938C131.151 269.938 95.6726 241.628 83.0173 203.589H29.2505V245.285C55.7315 297.882 110.157 333.946 173.067 333.946Z" fill="#34A853"/>
<path d="M83.0172 203.589C79.7985 193.933 77.9697 183.618 77.9697 173.011C77.9697 162.404 79.7985 152.09 83.0172 142.434V100.737H29.2504C17.985 123.163 12.1229 147.914 12.1328 173.011C12.1328 198.98 18.3508 223.559 29.2504 245.285L83.0172 203.589Z" fill="#FBBC05"/>
<path d="M173.067 76.0845C196.696 76.0845 217.91 84.2044 234.588 100.152L280.747 53.9926C252.876 28.0236 216.447 12.0764 173.067 12.0764C110.157 12.0764 55.7315 48.1404 29.2505 100.737L83.0173 142.433C95.6726 104.394 131.151 76.0845 173.067 76.0845Z" fill="#EA4335"/>
</g>
<g filter="url(#filter41_f_2002_1311)">
<path d="M327.565 176.668C327.565 165.257 326.54 154.284 324.638 143.75H173.067V206.002H259.679C255.949 226.119 244.61 243.164 227.566 254.575V294.955H279.577C310.008 266.938 327.565 225.68 327.565 176.668Z" fill="#4285F4"/>
<path d="M173.067 333.946C216.52 333.946 252.95 319.535 279.577 294.956L227.566 254.576C213.155 264.232 194.72 269.938 173.067 269.938C131.151 269.938 95.6726 241.628 83.0173 203.589H29.2505V245.285C55.7315 297.882 110.157 333.946 173.067 333.946Z" fill="#34A853"/>
<path d="M83.0172 203.589C79.7985 193.933 77.9697 183.618 77.9697 173.011C77.9697 162.404 79.7985 152.09 83.0172 142.434V100.737H29.2504C17.985 123.163 12.1229 147.914 12.1328 173.011C12.1328 198.98 18.3508 223.559 29.2504 245.285L83.0172 203.589Z" fill="#FBBC05"/>
<path d="M173.067 76.0845C196.696 76.0845 217.91 84.2044 234.588 100.152L280.747 53.9926C252.876 28.0236 216.447 12.0764 173.067 12.0764C110.157 12.0764 55.7315 48.1404 29.2505 100.737L83.0173 142.433C95.6726 104.394 131.151 76.0845 173.067 76.0845Z" fill="#EA4335"/>
</g>
<g filter="url(#filter42_f_2002_1311)">
<path d="M327.565 176.668C327.565 165.257 326.54 154.284 324.638 143.75H173.067V206.002H259.679C255.949 226.119 244.61 243.164 227.566 254.575V294.955H279.577C310.008 266.938 327.565 225.68 327.565 176.668Z" fill="#4285F4"/>
<path d="M173.067 333.946C216.52 333.946 252.95 319.535 279.577 294.956L227.566 254.576C213.155 264.232 194.72 269.938 173.067 269.938C131.151 269.938 95.6726 241.628 83.0173 203.589H29.2505V245.285C55.7315 297.882 110.157 333.946 173.067 333.946Z" fill="#34A853"/>
<path d="M83.0172 203.589C79.7985 193.933 77.9697 183.618 77.9697 173.011C77.9697 162.404 79.7985 152.09 83.0172 142.434V100.737H29.2504C17.985 123.163 12.1229 147.914 12.1328 173.011C12.1328 198.98 18.3508 223.559 29.2504 245.285L83.0172 203.589Z" fill="#FBBC05"/>
<path d="M173.067 76.0845C196.696 76.0845 217.91 84.2044 234.588 100.152L280.747 53.9926C252.876 28.0236 216.447 12.0764 173.067 12.0764C110.157 12.0764 55.7315 48.1404 29.2505 100.737L83.0173 142.433C95.6726 104.394 131.151 76.0845 173.067 76.0845Z" fill="#EA4335"/>
</g>
<g filter="url(#filter43_f_2002_1311)">
<path d="M327.565 176.668C327.565 165.257 326.54 154.284 324.638 143.75H173.067V206.002H259.679C255.949 226.119 244.61 243.164 227.566 254.575V294.955H279.577C310.008 266.938 327.565 225.68 327.565 176.668Z" fill="#4285F4"/>
<path d="M173.067 333.946C216.52 333.946 252.95 319.535 279.577 294.956L227.566 254.576C213.155 264.232 194.72 269.938 173.067 269.938C131.151 269.938 95.6726 241.628 83.0173 203.589H29.2505V245.285C55.7315 297.882 110.157 333.946 173.067 333.946Z" fill="#34A853"/>
<path d="M83.0172 203.589C79.7985 193.933 77.9697 183.618 77.9697 173.011C77.9697 162.404 79.7985 152.09 83.0172 142.434V100.737H29.2504C17.985 123.163 12.1229 147.914 12.1328 173.011C12.1328 198.98 18.3508 223.559 29.2504 245.285L83.0172 203.589Z" fill="#FBBC05"/>
<path d="M173.067 76.0845C196.696 76.0845 217.91 84.2044 234.588 100.152L280.747 53.9926C252.876 28.0236 216.447 12.0764 173.067 12.0764C110.157 12.0764 55.7315 48.1404 29.2505 100.737L83.0173 142.433C95.6726 104.394 131.151 76.0845 173.067 76.0845Z" fill="#EA4335"/>
</g>
</g>
<defs>
<filter id="filter0_f_2002_1311" x="-58.0932" y="-58.1496" width="455.884" height="462.321" filterUnits="userSpaceOnUse" color-interpolation-filters="sRGB">
<feFlood flood-opacity="0" result="BackgroundImageFix"/>
<feBlend mode="normal" in="SourceGraphic" in2="BackgroundImageFix" result="shape"/>
<feGaussianBlur stdDeviation="35.113" result="effect1_foregroundBlur_2002_1311"/>
</filter>
<filter id="filter1_f_2002_1311" x="-58.0932" y="-58.1496" width="455.884" height="462.321" filterUnits="userSpaceOnUse" color-interpolation-filters="sRGB">
<feFlood flood-opacity="0" result="BackgroundImageFix"/>
<feBlend mode="normal" in="SourceGraphic" in2="BackgroundImageFix" result="shape"/>
<feGaussianBlur stdDeviation="35.113" result="effect1_foregroundBlur_2002_1311"/>
</filter>
<filter id="filter2_f_2002_1311" x="-58.0932" y="-58.1496" width="455.884" height="462.321" filterUnits="userSpaceOnUse" color-interpolation-filters="sRGB">
<feFlood flood-opacity="0" result="BackgroundImageFix"/>
<feBlend mode="normal" in="SourceGraphic" in2="BackgroundImageFix" result="shape"/>
<feGaussianBlur stdDeviation="35.113" result="effect1_foregroundBlur_2002_1311"/>
</filter>
<filter id="filter3_f_2002_1311" x="-58.0932" y="-58.1496" width="455.884" height="462.321" filterUnits="userSpaceOnUse" color-interpolation-filters="sRGB">
<feFlood flood-opacity="0" result="BackgroundImageFix"/>
<feBlend mode="normal" in="SourceGraphic" in2="BackgroundImageFix" result="shape"/>
<feGaussianBlur stdDeviation="35.113" result="effect1_foregroundBlur_2002_1311"/>
</filter>
<filter id="filter4_f_2002_1311" x="-58.0932" y="-58.1496" width="455.884" height="462.321" filterUnits="userSpaceOnUse" color-interpolation-filters="sRGB">
<feFlood flood-opacity="0" result="BackgroundImageFix"/>
<feBlend mode="normal" in="SourceGraphic" in2="BackgroundImageFix" result="shape"/>
<feGaussianBlur stdDeviation="35.113" result="effect1_foregroundBlur_2002_1311"/>
</filter>
<filter id="filter5_f_2002_1311" x="-58.0932" y="-58.1496" width="455.884" height="462.321" filterUnits="userSpaceOnUse" color-interpolation-filters="sRGB">
<feFlood flood-opacity="0" result="BackgroundImageFix"/>
<feBlend mode="normal" in="SourceGraphic" in2="BackgroundImageFix" result="shape"/>
<feGaussianBlur stdDeviation="35.113" result="effect1_foregroundBlur_2002_1311"/>
</filter>
<filter id="filter6_f_2002_1311" x="-58.0932" y="-58.1496" width="455.884" height="462.321" filterUnits="userSpaceOnUse" color-interpolation-filters="sRGB">
<feFlood flood-opacity="0" result="BackgroundImageFix"/>
<feBlend mode="normal" in="SourceGraphic" in2="BackgroundImageFix" result="shape"/>
<feGaussianBlur stdDeviation="35.113" result="effect1_foregroundBlur_2002_1311"/>
</filter>
<filter id="filter7_f_2002_1311" x="-58.0932" y="-58.1496" width="455.884" height="462.321" filterUnits="userSpaceOnUse" color-interpolation-filters="sRGB">
<feFlood flood-opacity="0" result="BackgroundImageFix"/>
<feBlend mode="normal" in="SourceGraphic" in2="BackgroundImageFix" result="shape"/>
<feGaussianBlur stdDeviation="35.113" result="effect1_foregroundBlur_2002_1311"/>
</filter>
<filter id="filter8_f_2002_1311" x="-58.0932" y="-58.1496" width="455.884" height="462.321" filterUnits="userSpaceOnUse" color-interpolation-filters="sRGB">
<feFlood flood-opacity="0" result="BackgroundImageFix"/>
<feBlend mode="normal" in="SourceGraphic" in2="BackgroundImageFix" result="shape"/>
<feGaussianBlur stdDeviation="35.113" result="effect1_foregroundBlur_2002_1311"/>
</filter>
<filter id="filter9_f_2002_1311" x="-58.0932" y="-58.1496" width="455.884" height="462.321" filterUnits="userSpaceOnUse" color-interpolation-filters="sRGB">
<feFlood flood-opacity="0" result="BackgroundImageFix"/>
<feBlend mode="normal" in="SourceGraphic" in2="BackgroundImageFix" result="shape"/>
<feGaussianBlur stdDeviation="35.113" result="effect1_foregroundBlur_2002_1311"/>
</filter>
<filter id="filter10_f_2002_1311" x="-58.0932" y="-58.1496" width="455.884" height="462.321" filterUnits="userSpaceOnUse" color-interpolation-filters="sRGB">
<feFlood flood-opacity="0" result="BackgroundImageFix"/>
<feBlend mode="normal" in="SourceGraphic" in2="BackgroundImageFix" result="shape"/>
<feGaussianBlur stdDeviation="35.113" result="effect1_foregroundBlur_2002_1311"/>
</filter>
<filter id="filter11_f_2002_1311" x="-58.0932" y="-58.1496" width="455.884" height="462.321" filterUnits="userSpaceOnUse" color-interpolation-filters="sRGB">
<feFlood flood-opacity="0" result="BackgroundImageFix"/>
<feBlend mode="normal" in="SourceGraphic" in2="BackgroundImageFix" result="shape"/>
<feGaussianBlur stdDeviation="35.113" result="effect1_foregroundBlur_2002_1311"/>
</filter>
<filter id="filter12_f_2002_1311" x="-58.0932" y="-58.1496" width="455.884" height="462.321" filterUnits="userSpaceOnUse" color-interpolation-filters="sRGB">
<feFlood flood-opacity="0" result="BackgroundImageFix"/>
<feBlend mode="normal" in="SourceGraphic" in2="BackgroundImageFix" result="shape"/>
<feGaussianBlur stdDeviation="35.113" result="effect1_foregroundBlur_2002_1311"/>
</filter>
<filter id="filter13_f_2002_1311" x="-58.0932" y="-58.1496" width="455.884" height="462.321" filterUnits="userSpaceOnUse" color-interpolation-filters="sRGB">
<feFlood flood-opacity="0" result="BackgroundImageFix"/>
<feBlend mode="normal" in="SourceGraphic" in2="BackgroundImageFix" result="shape"/>
<feGaussianBlur stdDeviation="35.113" result="effect1_foregroundBlur_2002_1311"/>
</filter>
<filter id="filter14_f_2002_1311" x="-58.0932" y="-58.1496" width="455.884" height="462.321" filterUnits="userSpaceOnUse" color-interpolation-filters="sRGB">
<feFlood flood-opacity="0" result="BackgroundImageFix"/>
<feBlend mode="normal" in="SourceGraphic" in2="BackgroundImageFix" result="shape"/>
<feGaussianBlur stdDeviation="35.113" result="effect1_foregroundBlur_2002_1311"/>
</filter>
<filter id="filter15_f_2002_1311" x="-58.0932" y="-58.1496" width="455.884" height="462.321" filterUnits="userSpaceOnUse" color-interpolation-filters="sRGB">
<feFlood flood-opacity="0" result="BackgroundImageFix"/>
<feBlend mode="normal" in="SourceGraphic" in2="BackgroundImageFix" result="shape"/>
<feGaussianBlur stdDeviation="35.113" result="effect1_foregroundBlur_2002_1311"/>
</filter>
<filter id="filter16_f_2002_1311" x="-58.0932" y="-58.1496" width="455.884" height="462.321" filterUnits="userSpaceOnUse" color-interpolation-filters="sRGB">
<feFlood flood-opacity="0" result="BackgroundImageFix"/>
<feBlend mode="normal" in="SourceGraphic" in2="BackgroundImageFix" result="shape"/>
<feGaussianBlur stdDeviation="35.113" result="effect1_foregroundBlur_2002_1311"/>
</filter>
<filter id="filter17_f_2002_1311" x="-58.0932" y="-58.1496" width="455.884" height="462.321" filterUnits="userSpaceOnUse" color-interpolation-filters="sRGB">
<feFlood flood-opacity="0" result="BackgroundImageFix"/>
<feBlend mode="normal" in="SourceGraphic" in2="BackgroundImageFix" result="shape"/>
<feGaussianBlur stdDeviation="35.113" result="effect1_foregroundBlur_2002_1311"/>
</filter>
<filter id="filter18_f_2002_1311" x="-58.0932" y="-58.1496" width="455.884" height="462.321" filterUnits="userSpaceOnUse" color-interpolation-filters="sRGB">
<feFlood flood-opacity="0" result="BackgroundImageFix"/>
<feBlend mode="normal" in="SourceGraphic" in2="BackgroundImageFix" result="shape"/>
<feGaussianBlur stdDeviation="35.113" result="effect1_foregroundBlur_2002_1311"/>
</filter>
<filter id="filter19_f_2002_1311" x="-58.0932" y="-58.1496" width="455.884" height="462.321" filterUnits="userSpaceOnUse" color-interpolation-filters="sRGB">
<feFlood flood-opacity="0" result="BackgroundImageFix"/>
<feBlend mode="normal" in="SourceGraphic" in2="BackgroundImageFix" result="shape"/>
<feGaussianBlur stdDeviation="35.113" result="effect1_foregroundBlur_2002_1311"/>
</filter>
<filter id="filter20_f_2002_1311" x="-58.0932" y="-58.1496" width="455.884" height="462.321" filterUnits="userSpaceOnUse" color-interpolation-filters="sRGB">
<feFlood flood-opacity="0" result="BackgroundImageFix"/>
<feBlend mode="normal" in="SourceGraphic" in2="BackgroundImageFix" result="shape"/>
<feGaussianBlur stdDeviation="35.113" result="effect1_foregroundBlur_2002_1311"/>
</filter>
<filter id="filter21_f_2002_1311" x="-58.0932" y="-58.1496" width="455.884" height="462.321" filterUnits="userSpaceOnUse" color-interpolation-filters="sRGB">
<feFlood flood-opacity="0" result="BackgroundImageFix"/>
<feBlend mode="normal" in="SourceGraphic" in2="BackgroundImageFix" result="shape"/>
<feGaussianBlur stdDeviation="35.113" result="effect1_foregroundBlur_2002_1311"/>
</filter>
<filter id="filter22_f_2002_1311" x="-58.0932" y="-58.1496" width="455.884" height="462.321" filterUnits="userSpaceOnUse" color-interpolation-filters="sRGB">
<feFlood flood-opacity="0" result="BackgroundImageFix"/>
<feBlend mode="normal" in="SourceGraphic" in2="BackgroundImageFix" result="shape"/>
<feGaussianBlur stdDeviation="35.113" result="effect1_foregroundBlur_2002_1311"/>
</filter>
<filter id="filter23_f_2002_1311" x="-58.0932" y="-58.1496" width="455.884" height="462.321" filterUnits="userSpaceOnUse" color-interpolation-filters="sRGB">
<feFlood flood-opacity="0" result="BackgroundImageFix"/>
<feBlend mode="normal" in="SourceGraphic" in2="BackgroundImageFix" result="shape"/>
<feGaussianBlur stdDeviation="35.113" result="effect1_foregroundBlur_2002_1311"/>
</filter>
<filter id="filter24_f_2002_1311" x="-58.0932" y="-58.1496" width="455.884" height="462.321" filterUnits="userSpaceOnUse" color-interpolation-filters="sRGB">
<feFlood flood-opacity="0" result="BackgroundImageFix"/>
<feBlend mode="normal" in="SourceGraphic" in2="BackgroundImageFix" result="shape"/>
<feGaussianBlur stdDeviation="35.113" result="effect1_foregroundBlur_2002_1311"/>
</filter>
<filter id="filter25_f_2002_1311" x="-58.0932" y="-58.1496" width="455.884" height="462.321" filterUnits="userSpaceOnUse" color-interpolation-filters="sRGB">
<feFlood flood-opacity="0" result="BackgroundImageFix"/>
<feBlend mode="normal" in="SourceGraphic" in2="BackgroundImageFix" result="shape"/>
<feGaussianBlur stdDeviation="35.113" result="effect1_foregroundBlur_2002_1311"/>
</filter>
<filter id="filter26_f_2002_1311" x="-58.0932" y="-58.1496" width="455.884" height="462.321" filterUnits="userSpaceOnUse" color-interpolation-filters="sRGB">
<feFlood flood-opacity="0" result="BackgroundImageFix"/>
<feBlend mode="normal" in="SourceGraphic" in2="BackgroundImageFix" result="shape"/>
<feGaussianBlur stdDeviation="35.113" result="effect1_foregroundBlur_2002_1311"/>
</filter>
<filter id="filter27_f_2002_1311" x="-58.0932" y="-58.1496" width="455.884" height="462.321" filterUnits="userSpaceOnUse" color-interpolation-filters="sRGB">
<feFlood flood-opacity="0" result="BackgroundImageFix"/>
<feBlend mode="normal" in="SourceGraphic" in2="BackgroundImageFix" result="shape"/>
<feGaussianBlur stdDeviation="35.113" result="effect1_foregroundBlur_2002_1311"/>
</filter>
<filter id="filter28_f_2002_1311" x="-58.0932" y="-58.1496" width="455.884" height="462.321" filterUnits="userSpaceOnUse" color-interpolation-filters="sRGB">
<feFlood flood-opacity="0" result="BackgroundImageFix"/>
<feBlend mode="normal" in="SourceGraphic" in2="BackgroundImageFix" result="shape"/>
<feGaussianBlur stdDeviation="35.113" result="effect1_foregroundBlur_2002_1311"/>
</filter>
<filter id="filter29_f_2002_1311" x="-58.0932" y="-58.1496" width="455.884" height="462.321" filterUnits="userSpaceOnUse" color-interpolation-filters="sRGB">
<feFlood flood-opacity="0" result="BackgroundImageFix"/>
<feBlend mode="normal" in="SourceGraphic" in2="BackgroundImageFix" result="shape"/>
<feGaussianBlur stdDeviation="35.113" result="effect1_foregroundBlur_2002_1311"/>
</filter>
<filter id="filter30_f_2002_1311" x="-58.0932" y="-58.1496" width="455.884" height="462.321" filterUnits="userSpaceOnUse" color-interpolation-filters="sRGB">
<feFlood flood-opacity="0" result="BackgroundImageFix"/>
<feBlend mode="normal" in="SourceGraphic" in2="BackgroundImageFix" result="shape"/>
<feGaussianBlur stdDeviation="35.113" result="effect1_foregroundBlur_2002_1311"/>
</filter>
<filter id="filter31_f_2002_1311" x="-58.0932" y="-58.1496" width="455.884" height="462.321" filterUnits="userSpaceOnUse" color-interpolation-filters="sRGB">
<feFlood flood-opacity="0" result="BackgroundImageFix"/>
<feBlend mode="normal" in="SourceGraphic" in2="BackgroundImageFix" result="shape"/>
<feGaussianBlur stdDeviation="35.113" result="effect1_foregroundBlur_2002_1311"/>
</filter>
<filter id="filter32_f_2002_1311" x="-58.0932" y="-58.1496" width="455.884" height="462.321" filterUnits="userSpaceOnUse" color-interpolation-filters="sRGB">
<feFlood flood-opacity="0" result="BackgroundImageFix"/>
<feBlend mode="normal" in="SourceGraphic" in2="BackgroundImageFix" result="shape"/>
<feGaussianBlur stdDeviation="35.113" result="effect1_foregroundBlur_2002_1311"/>
</filter>
<filter id="filter33_f_2002_1311" x="-58.0932" y="-58.1496" width="455.884" height="462.321" filterUnits="userSpaceOnUse" color-interpolation-filters="sRGB">
<feFlood flood-opacity="0" result="BackgroundImageFix"/>
<feBlend mode="normal" in="SourceGraphic" in2="BackgroundImageFix" result="shape"/>
<feGaussianBlur stdDeviation="35.113" result="effect1_foregroundBlur_2002_1311"/>
</filter>
<filter id="filter34_f_2002_1311" x="-58.0932" y="-58.1496" width="455.884" height="462.321" filterUnits="userSpaceOnUse" color-interpolation-filters="sRGB">
<feFlood flood-opacity="0" result="BackgroundImageFix"/>
<feBlend mode="normal" in="SourceGraphic" in2="BackgroundImageFix" result="shape"/>
<feGaussianBlur stdDeviation="35.113" result="effect1_foregroundBlur_2002_1311"/>
</filter>
<filter id="filter35_f_2002_1311" x="-58.0932" y="-58.1496" width="455.884" height="462.321" filterUnits="userSpaceOnUse" color-interpolation-filters="sRGB">
<feFlood flood-opacity="0" result="BackgroundImageFix"/>
<feBlend mode="normal" in="SourceGraphic" in2="BackgroundImageFix" result="shape"/>
<feGaussianBlur stdDeviation="35.113" result="effect1_foregroundBlur_2002_1311"/>
</filter>
<filter id="filter36_f_2002_1311" x="-58.0932" y="-58.1496" width="455.884" height="462.321" filterUnits="userSpaceOnUse" color-interpolation-filters="sRGB">
<feFlood flood-opacity="0" result="BackgroundImageFix"/>
<feBlend mode="normal" in="SourceGraphic" in2="BackgroundImageFix" result="shape"/>
<feGaussianBlur stdDeviation="35.113" result="effect1_foregroundBlur_2002_1311"/>
</filter>
<filter id="filter37_f_2002_1311" x="-58.0932" y="-58.1496" width="455.884" height="462.321" filterUnits="userSpaceOnUse" color-interpolation-filters="sRGB">
<feFlood flood-opacity="0" result="BackgroundImageFix"/>
<feBlend mode="normal" in="SourceGraphic" in2="BackgroundImageFix" result="shape"/>
<feGaussianBlur stdDeviation="35.113" result="effect1_foregroundBlur_2002_1311"/>
</filter>
<filter id="filter38_f_2002_1311" x="-58.0932" y="-58.1496" width="455.884" height="462.321" filterUnits="userSpaceOnUse" color-interpolation-filters="sRGB">
<feFlood flood-opacity="0" result="BackgroundImageFix"/>
<feBlend mode="normal" in="SourceGraphic" in2="BackgroundImageFix" result="shape"/>
<feGaussianBlur stdDeviation="35.113" result="effect1_foregroundBlur_2002_1311"/>
</filter>
<filter id="filter39_f_2002_1311" x="-58.0932" y="-58.1496" width="455.884" height="462.321" filterUnits="userSpaceOnUse" color-interpolation-filters="sRGB">
<feFlood flood-opacity="0" result="BackgroundImageFix"/>
<feBlend mode="normal" in="SourceGraphic" in2="BackgroundImageFix" result="shape"/>
<feGaussianBlur stdDeviation="35.113" result="effect1_foregroundBlur_2002_1311"/>
</filter>
<filter id="filter40_f_2002_1311" x="-58.0932" y="-58.1496" width="455.884" height="462.321" filterUnits="userSpaceOnUse" color-interpolation-filters="sRGB">
<feFlood flood-opacity="0" result="BackgroundImageFix"/>
<feBlend mode="normal" in="SourceGraphic" in2="BackgroundImageFix" result="shape"/>
<feGaussianBlur stdDeviation="35.113" result="effect1_foregroundBlur_2002_1311"/>
</filter>
<filter id="filter41_f_2002_1311" x="-58.0932" y="-58.1496" width="455.884" height="462.321" filterUnits="userSpaceOnUse" color-interpolation-filters="sRGB">
<feFlood flood-opacity="0" result="BackgroundImageFix"/>
<feBlend mode="normal" in="SourceGraphic" in2="BackgroundImageFix" result="shape"/>
<feGaussianBlur stdDeviation="35.113" result="effect1_foregroundBlur_2002_1311"/>
</filter>
<filter id="filter42_f_2002_1311" x="-58.0932" y="-58.1496" width="455.884" height="462.321" filterUnits="userSpaceOnUse" color-interpolation-filters="sRGB">
<feFlood flood-opacity="0" result="BackgroundImageFix"/>
<feBlend mode="normal" in="SourceGraphic" in2="BackgroundImageFix" result="shape"/>
<feGaussianBlur stdDeviation="35.113" result="effect1_foregroundBlur_2002_1311"/>
</filter>
<filter id="filter43_f_2002_1311" x="-58.0932" y="-58.1496" width="455.884" height="462.321" filterUnits="userSpaceOnUse" color-interpolation-filters="sRGB">
<feFlood flood-opacity="0" result="BackgroundImageFix"/>
<feBlend mode="normal" in="SourceGraphic" in2="BackgroundImageFix" result="shape"/>
<feGaussianBlur stdDeviation="35.113" result="effect1_foregroundBlur_2002_1311"/>
</filter>
</defs>
</svg>
