<svg width="18" height="18" viewBox="0 0 18 18" fill="none" xmlns="http://www.w3.org/2000/svg">
<path d="M12.35 17.2999C12.0167 17.4333 11.7083 17.3916 11.425 17.1749C11.1417 16.9583 11 16.6583 11 16.2749C11 16.0916 11.0543 15.9293 11.163 15.7879C11.271 15.6459 11.4083 15.5416 11.575 15.4749C12.9083 14.9416 13.9793 14.0916 14.788 12.9249C15.596 11.7583 16 10.4416 16 8.97492C16 7.50825 15.596 6.19159 14.788 5.02492C13.9793 3.85825 12.9083 3.00825 11.575 2.47492C11.3917 2.40825 11.25 2.29992 11.15 2.14992C11.05 1.99992 11 1.83325 11 1.64992C11 1.28325 11.1417 0.991588 11.425 0.774921C11.7083 0.558254 12.0167 0.516588 12.35 0.649921C14.05 1.33325 15.4167 2.42492 16.45 3.92492C17.4833 5.42492 18 7.10825 18 8.97492C18 10.8416 17.4833 12.5249 16.45 14.0249C15.4167 15.5249 14.05 16.6166 12.35 17.2999ZM1 11.9999C0.716667 11.9999 0.479333 11.9039 0.288 11.7119C0.0960001 11.5206 0 11.2833 0 10.9999V6.99992C0 6.71659 0.0960001 6.47892 0.288 6.28692C0.479333 6.09559 0.716667 5.99992 1 5.99992H4L7.3 2.69992C7.61667 2.38325 7.979 2.31225 8.387 2.48692C8.79567 2.66225 9 2.97492 9 3.42492V14.5749C9 15.0249 8.79567 15.3373 8.387 15.5119C7.979 15.6873 7.61667 15.6166 7.3 15.2999L4 11.9999H1ZM11 12.9999V4.94992C11.75 5.29992 12.354 5.84159 12.812 6.57492C13.2707 7.30825 13.5 8.11659 13.5 8.99992C13.5 9.88325 13.2707 10.6833 12.812 11.3999C12.354 12.1166 11.75 12.6499 11 12.9999ZM7 5.84992L4.85 7.99992H2V9.99992H4.85L7 12.1499V5.84992Z" fill="white"/>
</svg>
