<svg width="22" height="22" viewBox="0 0 22 22" fill="none" xmlns="http://www.w3.org/2000/svg">
<path d="M7.65 19H5C4.45 19 3.97933 18.8043 3.588 18.413C3.196 18.021 3 17.55 3 17V14.35L1.075 12.4C0.691667 12.0167 0.5 11.55 0.5 11C0.5 10.45 0.691667 9.98333 1.075 9.6L3 7.65V5C3 4.45 3.196 3.97933 3.588 3.588C3.97933 3.196 4.45 3 5 3H7.65L9.6 1.075C9.98333 0.691667 10.45 0.5 11 0.5C11.55 0.5 12.0167 0.691667 12.4 1.075L14.35 3H17C17.55 3 18.021 3.196 18.413 3.588C18.8043 3.97933 19 4.45 19 5V7.65L20.925 9.6C21.3083 9.98333 21.5 10.45 21.5 11C21.5 11.55 21.3083 12.0167 20.925 12.4L19 14.35V17C19 17.55 18.8043 18.021 18.413 18.413C18.021 18.8043 17.55 19 17 19H14.35L12.4 20.925C12.0167 21.3083 11.55 21.5 11 21.5C10.45 21.5 9.98333 21.3083 9.6 20.925L7.65 19ZM11 16C12.3833 16 13.5627 15.5123 14.538 14.537C15.5127 13.5623 16 12.3833 16 11C16 9.61667 15.5127 8.43733 14.538 7.462C13.5627 6.48733 12.3833 6 11 6V16ZM11 19.5L13.5 17H17V13.5L19.5 11L17 8.5V5H13.5L11 2.5L8.5 5H5V8.5L2.5 11L5 13.5V17H8.5L11 19.5Z" fill="white"/>
</svg>
