<svg width="20" height="15" viewBox="0 0 20 15" fill="none" xmlns="http://www.w3.org/2000/svg">
<path d="M2 12.5H18V2.5H2V12.5ZM2 14.5C1.45 14.5 0.979333 14.3043 0.588 13.913C0.196 13.521 0 13.05 0 12.5V2.5C0 1.95 0.196 1.47933 0.588 1.088C0.979333 0.696 1.45 0.5 2 0.5H18C18.55 0.5 19.021 0.696 19.413 1.088C19.8043 1.47933 20 1.95 20 2.5V12.5C20 13.05 19.8043 13.521 19.413 13.913C19.021 14.3043 18.55 14.5 18 14.5H2ZM9 5.5H11V3.5H9V5.5ZM9 8.5H11V6.5H9V8.5ZM6 5.5H8V3.5H6V5.5ZM6 8.5H8V6.5H6V8.5ZM3 8.5H5V6.5H3V8.5ZM3 5.5H5V3.5H3V5.5ZM7 11.5H13C13.2833 11.5 13.521 11.404 13.713 11.212C13.9043 11.0207 14 10.7833 14 10.5C14 10.2167 13.9043 9.979 13.713 9.787C13.521 9.59567 13.2833 9.5 13 9.5H7C6.71667 9.5 6.47933 9.59567 6.288 9.787C6.096 9.979 6 10.2167 6 10.5C6 10.7833 6.096 11.0207 6.288 11.212C6.47933 11.404 6.71667 11.5 7 11.5ZM12 8.5H14V6.5H12V8.5ZM12 5.5H14V3.5H12V5.5ZM15 8.5H17V6.5H15V8.5ZM15 5.5H17V3.5H15V5.5Z" fill="white"/>
</svg>
