<svg width="40" height="40" viewBox="0 0 40 40" fill="none" xmlns="http://www.w3.org/2000/svg">
<rect x="0.5" y="0.5" width="39" height="39" rx="19.5" stroke="#7B7B7B"/>
<mask id="mask0_2050_3050" style="mask-type:alpha" maskUnits="userSpaceOnUse" x="8" y="8" width="24" height="24">
<rect x="8" y="8" width="24" height="24" fill="#D9D9D9"/>
</mask>
<g mask="url(#mask0_2050_3050)">
<path d="M20 20C19.7167 20 19.4793 19.904 19.288 19.712C19.096 19.5207 19 19.2833 19 19V11C19 10.7167 19.096 10.479 19.288 10.287C19.4793 10.0957 19.7167 10 20 10C20.2833 10 20.521 10.0957 20.713 10.287C20.9043 10.479 21 10.7167 21 11V19C21 19.2833 20.9043 19.5207 20.713 19.712C20.521 19.904 20.2833 20 20 20ZM20 29C18.75 29 17.5793 28.7627 16.488 28.288C15.396 27.8127 14.446 27.1707 13.638 26.362C12.8293 25.554 12.1873 24.604 11.712 23.512C11.2373 22.4207 11 21.25 11 20C11 18.95 11.171 17.946 11.513 16.988C11.8543 16.0293 12.3333 15.1667 12.95 14.4C13.1333 14.1667 13.3667 14.054 13.65 14.062C13.9333 14.0707 14.1833 14.1833 14.4 14.4C14.5833 14.5833 14.6667 14.8083 14.65 15.075C14.6333 15.3417 14.5417 15.5917 14.375 15.825C13.9417 16.4083 13.6043 17.054 13.363 17.762C13.121 18.4707 13 19.2167 13 20C13 21.95 13.6793 23.604 15.038 24.962C16.396 26.3207 18.05 27 20 27C21.95 27 23.604 26.3207 24.962 24.962C26.3207 23.604 27 21.95 27 20C27 19.2167 26.8793 18.4623 26.638 17.737C26.396 17.0123 26.05 16.3583 25.6 15.775C25.4333 15.5583 25.3417 15.3207 25.325 15.062C25.3083 14.804 25.3917 14.5833 25.575 14.4C25.775 14.2 26.0167 14.0957 26.3 14.087C26.5833 14.079 26.8167 14.1833 27 14.4C27.6333 15.1667 28.125 16.0293 28.475 16.988C28.825 17.946 29 18.95 29 20C29 21.25 28.7627 22.4207 28.288 23.512C27.8127 24.604 27.171 25.554 26.363 26.362C25.5543 27.1707 24.6043 27.8127 23.513 28.288C22.421 28.7627 21.25 29 20 29Z" fill="white"/>
</g>
</svg>
