<svg width="346" height="346" viewBox="0 0 346 346" fill="none" xmlns="http://www.w3.org/2000/svg">
<mask id="mask0_2003_1311" style="mask-type:alpha" maskUnits="userSpaceOnUse" x="12" y="53" width="323" height="243">
<path d="M34.0699 295.086H85.4136V170.937L12.0654 115.759V273.102C12.0654 285.172 21.989 295.086 34.0699 295.086Z" fill="#4285F4"/>
<path d="M261.021 295.086H312.364C324.445 295.086 334.369 285.172 334.369 273.102V115.759L261.021 170.506" fill="#34A853"/>
<path d="M261.021 75.6696V170.937L334.369 116.191V86.4465C334.369 59.2888 303.304 43.7701 281.731 60.1509" fill="#FBBC04"/>
<path d="M85.4094 170.937V75.6693L173.427 141.624L261.014 75.6693V170.937L172.996 236.46" fill="#EA4335"/>
<path d="M12.0654 86.4464V115.759L85.4094 170.937L85.4136 75.6696L64.7035 60.1509C43.1306 44.2011 12.0654 59.7198 12.0654 86.4464Z" fill="#C5221F"/>
</mask>
<g mask="url(#mask0_2003_1311)">
<g filter="url(#filter0_f_2003_1311)">
<path d="M34.0714 294.85H85.4151V170.701L12.0669 115.523V272.865C12.0669 284.935 21.9905 294.85 34.0714 294.85Z" fill="#4285F4"/>
<path d="M261.022 294.85H312.366C324.447 294.85 334.371 284.935 334.371 272.865V115.523L261.022 170.269" fill="#34A853"/>
<path d="M261.022 75.4333V170.701L334.371 115.954V86.2102C334.371 59.0525 303.306 43.5338 281.733 59.9146" fill="#FBBC04"/>
<path d="M85.4111 170.701V75.4331L173.429 141.388L261.015 75.4331V170.701L172.998 236.224" fill="#EA4335"/>
<path d="M12.0669 86.2106V115.524L85.4151 170.27V75.4337L64.705 59.915C43.132 43.9653 12.0669 59.4839 12.0669 86.2106Z" fill="#C5221F"/>
</g>
<g filter="url(#filter1_f_2003_1311)">
<path d="M34.0714 294.85H85.4151V170.701L12.0669 115.523V272.865C12.0669 284.935 21.9905 294.85 34.0714 294.85Z" fill="#4285F4"/>
<path d="M261.022 294.85H312.366C324.447 294.85 334.371 284.935 334.371 272.865V115.523L261.022 170.269" fill="#34A853"/>
<path d="M261.022 75.4333V170.701L334.371 115.954V86.2102C334.371 59.0525 303.306 43.5338 281.733 59.9146" fill="#FBBC04"/>
<path d="M85.4111 170.701V75.4331L173.429 141.388L261.015 75.4331V170.701L172.998 236.224" fill="#EA4335"/>
<path d="M12.0669 86.2106V115.524L85.4151 170.27V75.4337L64.705 59.915C43.132 43.9653 12.0669 59.4839 12.0669 86.2106Z" fill="#C5221F"/>
</g>
<g filter="url(#filter2_f_2003_1311)">
<path d="M34.0714 294.85H85.4151V170.701L12.0669 115.523V272.865C12.0669 284.935 21.9905 294.85 34.0714 294.85Z" fill="#4285F4"/>
<path d="M261.022 294.85H312.366C324.447 294.85 334.371 284.935 334.371 272.865V115.523L261.022 170.269" fill="#34A853"/>
<path d="M261.022 75.4333V170.701L334.371 115.954V86.2102C334.371 59.0525 303.306 43.5338 281.733 59.9146" fill="#FBBC04"/>
<path d="M85.4111 170.701V75.4331L173.429 141.388L261.015 75.4331V170.701L172.998 236.224" fill="#EA4335"/>
<path d="M12.0669 86.2106V115.524L85.4151 170.27V75.4337L64.705 59.915C43.132 43.9653 12.0669 59.4839 12.0669 86.2106Z" fill="#C5221F"/>
</g>
<g filter="url(#filter3_f_2003_1311)">
<path d="M34.0714 294.85H85.4151V170.701L12.0669 115.523V272.865C12.0669 284.935 21.9905 294.85 34.0714 294.85Z" fill="#4285F4"/>
<path d="M261.022 294.85H312.366C324.447 294.85 334.371 284.935 334.371 272.865V115.523L261.022 170.269" fill="#34A853"/>
<path d="M261.022 75.4333V170.701L334.371 115.954V86.2102C334.371 59.0525 303.306 43.5338 281.733 59.9146" fill="#FBBC04"/>
<path d="M85.4111 170.701V75.4331L173.429 141.388L261.015 75.4331V170.701L172.998 236.224" fill="#EA4335"/>
<path d="M12.0669 86.2106V115.524L85.4151 170.27V75.4337L64.705 59.915C43.132 43.9653 12.0669 59.4839 12.0669 86.2106Z" fill="#C5221F"/>
</g>
<g filter="url(#filter4_f_2003_1311)">
<path d="M34.0714 294.85H85.4151V170.701L12.0669 115.523V272.865C12.0669 284.935 21.9905 294.85 34.0714 294.85Z" fill="#4285F4"/>
<path d="M261.022 294.85H312.366C324.447 294.85 334.371 284.935 334.371 272.865V115.523L261.022 170.269" fill="#34A853"/>
<path d="M261.022 75.4333V170.701L334.371 115.954V86.2102C334.371 59.0525 303.306 43.5338 281.733 59.9146" fill="#FBBC04"/>
<path d="M85.4111 170.701V75.4331L173.429 141.388L261.015 75.4331V170.701L172.998 236.224" fill="#EA4335"/>
<path d="M12.0669 86.2106V115.524L85.4151 170.27V75.4337L64.705 59.915C43.132 43.9653 12.0669 59.4839 12.0669 86.2106Z" fill="#C5221F"/>
</g>
</g>
<defs>
<filter id="filter0_f_2003_1311" x="-56.9051" y="-15.7596" width="460.248" height="379.582" filterUnits="userSpaceOnUse" color-interpolation-filters="sRGB">
<feFlood flood-opacity="0" result="BackgroundImageFix"/>
<feBlend mode="normal" in="SourceGraphic" in2="BackgroundImageFix" result="shape"/>
<feGaussianBlur stdDeviation="34.486" result="effect1_foregroundBlur_2003_1311"/>
</filter>
<filter id="filter1_f_2003_1311" x="-56.9051" y="-15.7596" width="460.248" height="379.582" filterUnits="userSpaceOnUse" color-interpolation-filters="sRGB">
<feFlood flood-opacity="0" result="BackgroundImageFix"/>
<feBlend mode="normal" in="SourceGraphic" in2="BackgroundImageFix" result="shape"/>
<feGaussianBlur stdDeviation="34.486" result="effect1_foregroundBlur_2003_1311"/>
</filter>
<filter id="filter2_f_2003_1311" x="-56.9051" y="-15.7596" width="460.248" height="379.582" filterUnits="userSpaceOnUse" color-interpolation-filters="sRGB">
<feFlood flood-opacity="0" result="BackgroundImageFix"/>
<feBlend mode="normal" in="SourceGraphic" in2="BackgroundImageFix" result="shape"/>
<feGaussianBlur stdDeviation="34.486" result="effect1_foregroundBlur_2003_1311"/>
</filter>
<filter id="filter3_f_2003_1311" x="-56.9051" y="-15.7596" width="460.248" height="379.582" filterUnits="userSpaceOnUse" color-interpolation-filters="sRGB">
<feFlood flood-opacity="0" result="BackgroundImageFix"/>
<feBlend mode="normal" in="SourceGraphic" in2="BackgroundImageFix" result="shape"/>
<feGaussianBlur stdDeviation="34.486" result="effect1_foregroundBlur_2003_1311"/>
</filter>
<filter id="filter4_f_2003_1311" x="-56.9051" y="-15.7596" width="460.248" height="379.582" filterUnits="userSpaceOnUse" color-interpolation-filters="sRGB">
<feFlood flood-opacity="0" result="BackgroundImageFix"/>
<feBlend mode="normal" in="SourceGraphic" in2="BackgroundImageFix" result="shape"/>
<feGaussianBlur stdDeviation="34.486" result="effect1_foregroundBlur_2003_1311"/>
</filter>
</defs>
</svg>
