<svg width="40" height="40" viewBox="0 0 40 40" fill="none" xmlns="http://www.w3.org/2000/svg">
<rect width="40" height="40" rx="20" fill="#9A9A9A"/>
<mask id="mask0_2025_3040" style="mask-type:alpha" maskUnits="userSpaceOnUse" x="8" y="8" width="24" height="24">
<rect x="8" y="8" width="24" height="24" fill="#D9D9D9"/>
</mask>
<g mask="url(#mask0_2025_3040)">
<path d="M11 27C10.45 27 9.97933 26.8043 9.588 26.413C9.196 26.021 9 25.55 9 25V15C9 14.45 9.196 13.9793 9.588 13.588C9.97933 13.196 10.45 13 11 13H21C21.55 13 22.021 13.196 22.413 13.588C22.8043 13.9793 23 14.45 23 15V25C23 25.55 22.8043 26.021 22.413 26.413C22.021 26.8043 21.55 27 21 27H11ZM11 25H21V15H11V25ZM26 27C25.7167 27 25.4793 26.904 25.288 26.712C25.096 26.5207 25 26.2833 25 26V13.975C25 13.6917 25.096 13.4583 25.288 13.275C25.4793 13.0917 25.7167 13 26 13C26.2833 13 26.5207 13.0957 26.712 13.287C26.904 13.479 27 13.7167 27 14V26.025C27 26.3083 26.904 26.5417 26.712 26.725C26.5207 26.9083 26.2833 27 26 27ZM30 27C29.7167 27 29.4793 26.904 29.288 26.712C29.096 26.5207 29 26.2833 29 26V13.975C29 13.6917 29.096 13.4583 29.288 13.275C29.4793 13.0917 29.7167 13 30 13C30.2833 13 30.5207 13.0957 30.712 13.287C30.904 13.479 31 13.7167 31 14V26.025C31 26.3083 30.904 26.5417 30.712 26.725C30.5207 26.9083 30.2833 27 30 27Z" fill="white"/>
</g>
</svg>
