<svg width="40" height="40" viewBox="0 0 40 40" fill="none" xmlns="http://www.w3.org/2000/svg">
<rect x="0.5" y="0.5" width="39" height="39" rx="19.5" stroke="#7B7B7B"/>
<mask id="mask0_2050_3053" style="mask-type:alpha" maskUnits="userSpaceOnUse" x="8" y="8" width="24" height="24">
<rect x="8" y="8" width="24" height="24" fill="#D9D9D9"/>
</mask>
<g mask="url(#mask0_2050_3053)">
<path d="M21.8748 30H18.1248C17.8748 30 17.6582 29.9167 17.4748 29.75C17.2915 29.5833 17.1832 29.375 17.1498 29.125L16.8498 26.8C16.6332 26.7167 16.4292 26.6167 16.2378 26.5C16.0458 26.3833 15.8582 26.2583 15.6748 26.125L13.4998 27.025C13.2665 27.1083 13.0332 27.1167 12.7998 27.05C12.5665 26.9833 12.3832 26.8417 12.2498 26.625L10.3998 23.4C10.2665 23.1833 10.2248 22.95 10.2748 22.7C10.3248 22.45 10.4498 22.25 10.6498 22.1L12.5248 20.675C12.5082 20.5583 12.4998 20.4457 12.4998 20.337V19.662C12.4998 19.554 12.5082 19.4417 12.5248 19.325L10.6498 17.9C10.4498 17.75 10.3248 17.55 10.2748 17.3C10.2248 17.05 10.2665 16.8167 10.3998 16.6L12.2498 13.375C12.3665 13.1417 12.5455 12.9957 12.7868 12.937C13.0288 12.879 13.2665 12.8917 13.4998 12.975L15.6748 13.875C15.8582 13.7417 16.0498 13.6167 16.2498 13.5C16.4498 13.3833 16.6498 13.2833 16.8498 13.2L17.1498 10.875C17.1832 10.625 17.2915 10.4167 17.4748 10.25C17.6582 10.0833 17.8748 10 18.1248 10H21.8748C22.1248 10 22.3415 10.0833 22.5248 10.25C22.7082 10.4167 22.8165 10.625 22.8498 10.875L23.1498 13.2C23.3665 13.2833 23.5708 13.3833 23.7628 13.5C23.9542 13.6167 24.1415 13.7417 24.3249 13.875L26.4998 12.975C26.7332 12.8917 26.9665 12.8833 27.1999 12.95C27.4332 13.0167 27.6165 13.1583 27.7498 13.375L29.5998 16.6C29.7332 16.8167 29.7748 17.05 29.7248 17.3C29.6749 17.55 29.5499 17.75 29.3498 17.9L27.4748 19.325C27.4915 19.4417 27.4998 19.554 27.4998 19.662V20.337C27.4998 20.4457 27.4832 20.5583 27.4499 20.675L29.3249 22.1C29.5249 22.25 29.6499 22.45 29.6999 22.7C29.7498 22.95 29.7082 23.1833 29.5749 23.4L27.7248 26.6C27.5915 26.8167 27.4042 26.9627 27.1628 27.038C26.9208 27.1127 26.6832 27.1083 26.4499 27.025L24.3249 26.125C24.1415 26.2583 23.9498 26.3833 23.7498 26.5C23.5498 26.6167 23.3498 26.7167 23.1498 26.8L22.8498 29.125C22.8165 29.375 22.7082 29.5833 22.5248 29.75C22.3415 29.9167 22.1248 30 21.8748 30ZM18.9998 28H20.9748L21.3248 25.35C21.8415 25.2167 22.3208 25.0207 22.7628 24.762C23.2042 24.504 23.6082 24.1917 23.9748 23.825L26.4499 24.85L27.4248 23.15L25.2748 21.525C25.3582 21.2917 25.4165 21.0457 25.4499 20.787C25.4832 20.529 25.4998 20.2667 25.4998 20C25.4998 19.7333 25.4832 19.4707 25.4499 19.212C25.4165 18.954 25.3582 18.7083 25.2748 18.475L27.4248 16.85L26.4499 15.15L23.9748 16.2C23.6082 15.8167 23.2042 15.4957 22.7628 15.237C22.3208 14.979 21.8415 14.7833 21.3248 14.65L20.9998 12H19.0248L18.6748 14.65C18.1582 14.7833 17.6792 14.979 17.2378 15.237C16.7958 15.4957 16.3915 15.8083 16.0248 16.175L13.5498 15.15L12.5748 16.85L14.7248 18.45C14.6415 18.7 14.5832 18.95 14.5498 19.2C14.5165 19.45 14.4998 19.7167 14.4998 20C14.4998 20.2667 14.5165 20.525 14.5498 20.775C14.5832 21.025 14.6415 21.275 14.7248 21.525L12.5748 23.15L13.5498 24.85L16.0248 23.8C16.3915 24.1833 16.7958 24.504 17.2378 24.762C17.6792 25.0207 18.1582 25.2167 18.6748 25.35L18.9998 28Z" fill="white"/>
<circle cx="20" cy="20" r="3" fill="white"/>
</g>
</svg>
