<svg width="24" height="24" viewBox="0 0 24 24" fill="none" xmlns="http://www.w3.org/2000/svg">
<mask id="mask0_2025_3034" style="mask-type:alpha" maskUnits="userSpaceOnUse" x="0" y="0" width="24" height="24">
<rect width="24" height="24" fill="#D9D9D9"/>
</mask>
<g mask="url(#mask0_2025_3034)">
<path d="M7.425 21C7.04167 21 6.70833 20.8583 6.425 20.575C6.14167 20.2917 6 19.9583 6 19.575C6 19.425 6.03767 19.254 6.113 19.062C6.18767 18.8707 6.28333 18.7167 6.4 18.6L7 18H4C3.45 18 2.97933 17.8043 2.588 17.413C2.196 17.021 2 16.55 2 16V5C2 4.45 2.196 3.979 2.588 3.587C2.97933 3.19567 3.45 3 4 3H11C11.2833 3 11.521 3.09567 11.713 3.287C11.9043 3.479 12 3.71667 12 4C12 4.28333 11.9043 4.52067 11.713 4.712C11.521 4.904 11.2833 5 11 5H4V16H20V14C20 13.7167 20.096 13.479 20.288 13.287C20.4793 13.0957 20.7167 13 21 13C21.2833 13 21.5207 13.0957 21.712 13.287C21.904 13.479 22 13.7167 22 14V16C22 16.55 21.8043 17.021 21.413 17.413C21.021 17.8043 20.55 18 20 18H17L17.6 18.6C17.7167 18.7167 17.8127 18.8667 17.888 19.05C17.9627 19.2333 18 19.4083 18 19.575C18 19.9583 17.8583 20.2917 17.575 20.575C17.2917 20.8583 16.9583 21 16.575 21H7.425ZM15 14.575C14.8667 14.575 14.7417 14.554 14.625 14.512C14.5083 14.4707 14.4 14.4 14.3 14.3L10.7 10.7C10.5167 10.5167 10.425 10.2833 10.425 10C10.425 9.71667 10.5167 9.48333 10.7 9.3C10.8833 9.11667 11.1167 9.025 11.4 9.025C11.6833 9.025 11.9167 9.11667 12.1 9.3L14 11.2V4C14 3.71667 14.096 3.479 14.288 3.287C14.4793 3.09567 14.7167 3 15 3C15.2833 3 15.521 3.09567 15.713 3.287C15.9043 3.479 16 3.71667 16 4V11.2L17.9 9.3C18.0833 9.11667 18.3167 9.025 18.6 9.025C18.8833 9.025 19.1167 9.11667 19.3 9.3C19.4833 9.48333 19.575 9.71667 19.575 10C19.575 10.2833 19.4833 10.5167 19.3 10.7L15.7 14.3C15.6 14.4 15.4917 14.4707 15.375 14.512C15.2583 14.554 15.1333 14.575 15 14.575Z" fill="white"/>
</g>
</svg>
