<svg width="40" height="40" viewBox="0 0 40 40" fill="none" xmlns="http://www.w3.org/2000/svg">
<rect x="0.5" y="0.5" width="39" height="39" rx="19.5" stroke="#7B7B7B"/>
<mask id="mask0_2050_3051" style="mask-type:alpha" maskUnits="userSpaceOnUse" x="8" y="8" width="24" height="24">
<rect x="8" y="8" width="24" height="24" fill="#D9D9D9"/>
</mask>
<g mask="url(#mask0_2050_3051)">
<path d="M23.325 24.275C23.1417 24.0583 23.05 23.8123 23.05 23.537C23.05 23.2623 23.1417 23.0333 23.325 22.85L25.175 21H18C17.7167 21 17.4793 20.904 17.288 20.712C17.096 20.5207 17 20.2833 17 20C17 19.7167 17.096 19.479 17.288 19.287C17.4793 19.0957 17.7167 19 18 19H25.175L23.325 17.15C23.125 16.95 23.025 16.7127 23.025 16.438C23.025 16.1627 23.125 15.925 23.325 15.725C23.5083 15.525 23.7377 15.425 24.013 15.425C24.2877 15.425 24.5167 15.5167 24.7 15.7L28.3 19.3C28.4 19.4 28.471 19.5083 28.513 19.625C28.5543 19.7417 28.575 19.8667 28.575 20C28.575 20.1333 28.5543 20.2583 28.513 20.375C28.471 20.4917 28.4 20.6 28.3 20.7L24.7 24.3C24.4833 24.5167 24.246 24.6123 23.988 24.587C23.7293 24.5623 23.5083 24.4583 23.325 24.275ZM13 29C12.45 29 11.979 28.8043 11.587 28.413C11.1957 28.021 11 27.55 11 27V13C11 12.45 11.1957 11.979 11.587 11.587C11.979 11.1957 12.45 11 13 11H19C19.2833 11 19.521 11.0957 19.713 11.287C19.9043 11.479 20 11.7167 20 12C20 12.2833 19.9043 12.5207 19.713 12.712C19.521 12.904 19.2833 13 19 13H13V27H19C19.2833 27 19.521 27.096 19.713 27.288C19.9043 27.4793 20 27.7167 20 28C20 28.2833 19.9043 28.5207 19.713 28.712C19.521 28.904 19.2833 29 19 29H13Z" fill="white"/>
</g>
</svg>
