<svg width="18" height="18" viewBox="0 0 18 18" fill="none" xmlns="http://www.w3.org/2000/svg">
<path d="M9 13C7.9 13 6.95833 12.6083 6.175 11.825C5.39167 11.0417 5 10.1 5 9C5 7.9 5.39167 6.95833 6.175 6.175C6.95833 5.39167 7.9 5 9 5C10.1 5 11.0417 5.39167 11.825 6.175C12.6083 6.95833 13 7.9 13 9C13 10.1 12.6083 11.0417 11.825 11.825C11.0417 12.6083 10.1 13 9 13ZM9 11C9.55 11 10.021 10.804 10.413 10.412C10.8043 10.0207 11 9.55 11 9C11 8.45 10.8043 7.979 10.413 7.587C10.021 7.19567 9.55 7 9 7C8.45 7 7.97933 7.19567 7.588 7.587C7.196 7.979 7 8.45 7 9C7 9.55 7.196 10.0207 7.588 10.412C7.97933 10.804 8.45 11 9 11ZM1 6C0.716667 6 0.479333 5.904 0.288 5.712C0.0960001 5.52067 0 5.28333 0 5V2C0 1.45 0.195667 0.979 0.587 0.587C0.979 0.195667 1.45 0 2 0H5C5.28333 0 5.521 0.0956666 5.713 0.287C5.90433 0.479 6 0.716667 6 1C6 1.28333 5.90433 1.52067 5.713 1.712C5.521 1.904 5.28333 2 5 2H2V5C2 5.28333 1.90433 5.52067 1.713 5.712C1.521 5.904 1.28333 6 1 6ZM2 18C1.45 18 0.979 17.8043 0.587 17.413C0.195667 17.021 0 16.55 0 16V13C0 12.7167 0.0960001 12.479 0.288 12.287C0.479333 12.0957 0.716667 12 1 12C1.28333 12 1.521 12.0957 1.713 12.287C1.90433 12.479 2 12.7167 2 13V16H5C5.28333 16 5.521 16.096 5.713 16.288C5.90433 16.4793 6 16.7167 6 17C6 17.2833 5.90433 17.5207 5.713 17.712C5.521 17.904 5.28333 18 5 18H2ZM13 18C12.7167 18 12.4793 17.904 12.288 17.712C12.096 17.5207 12 17.2833 12 17C12 16.7167 12.096 16.4793 12.288 16.288C12.4793 16.096 12.7167 16 13 16H16V13C16 12.7167 16.096 12.479 16.288 12.287C16.4793 12.0957 16.7167 12 17 12C17.2833 12 17.5207 12.0957 17.712 12.287C17.904 12.479 18 12.7167 18 13V16C18 16.55 17.8043 17.021 17.413 17.413C17.021 17.8043 16.55 18 16 18H13ZM17 6C16.7167 6 16.4793 5.904 16.288 5.712C16.096 5.52067 16 5.28333 16 5V2H13C12.7167 2 12.4793 1.904 12.288 1.712C12.096 1.52067 12 1.28333 12 1C12 0.716667 12.096 0.479 12.288 0.287C12.4793 0.0956666 12.7167 0 13 0H16C16.55 0 17.021 0.195667 17.413 0.587C17.8043 0.979 18 1.45 18 2V5C18 5.28333 17.904 5.52067 17.712 5.712C17.5207 5.904 17.2833 6 17 6Z" fill="white"/>
</svg>
