<svg width="22" height="19" viewBox="0 0 22 19" fill="none" xmlns="http://www.w3.org/2000/svg">
<path d="M10.9996 18.0699C10.873 18.0699 10.7543 18.047 10.6436 18.0012C10.5328 17.9561 10.43 17.8791 10.3351 17.7701L0.27295 6.21407C0.083098 5.99603 -0.00771436 5.73693 0.000512539 5.43677C0.0081066 5.13733 0.106829 4.88768 0.296681 4.68781C1.78385 3.14338 3.44126 1.97615 5.26889 1.18612C7.0959 0.395375 9.00612 0 10.9996 0C13.0088 0 14.927 0.395375 16.754 1.18612C18.5816 1.97615 20.2311 3.14338 21.7024 4.68781C21.8923 4.88768 21.9913 5.13733 21.9996 5.43677C22.0072 5.73693 21.916 5.99603 21.7262 6.21407L11.664 17.7701C11.5691 17.8791 11.4663 17.9561 11.3555 18.0012C11.2448 18.047 11.1261 18.0699 10.9996 18.0699ZM3.73774 7.08622C4.7661 6.23224 5.89351 5.56432 7.11995 5.08246C8.34575 4.60132 9.63896 4.36075 10.9996 4.36075C12.3602 4.36075 13.6537 4.60132 14.8801 5.08246C16.1059 5.56432 17.233 6.23224 18.2614 7.08622L19.6378 5.50545C18.4038 4.43343 17.0552 3.61107 15.5921 3.03835C14.1283 2.46637 12.5975 2.18038 10.9996 2.18038C9.40165 2.18038 7.87081 2.46637 6.40705 3.03835C4.94393 3.61107 3.59535 4.43343 2.36132 5.50545L3.73774 7.08622Z" fill="#2D2D2D"/>
</svg>
