<svg width="24" height="24" viewBox="0 0 24 24" fill="none" xmlns="http://www.w3.org/2000/svg">
<mask id="mask0_2025_3037" style="mask-type:alpha" maskUnits="userSpaceOnUse" x="0" y="0" width="24" height="24">
<rect width="24" height="24" fill="#D9D9D9"/>
</mask>
<g mask="url(#mask0_2025_3037)">
<path d="M11.9996 21.0699C11.873 21.0699 11.7543 21.047 11.6436 21.0012C11.5328 20.9561 11.43 20.8791 11.3351 20.7701L1.27295 9.21407C1.0831 8.99603 0.992286 8.73693 1.00051 8.43677C1.00811 8.13733 1.10683 7.88768 1.29668 7.68781C2.78385 6.14338 4.44126 4.97615 6.26889 4.18612C8.0959 3.39537 10.0061 3 11.9996 3C14.0088 3 15.927 3.39537 17.754 4.18612C19.5816 4.97615 21.2311 6.14338 22.7024 7.68781C22.8923 7.88768 22.9913 8.13733 22.9996 8.43677C23.0072 8.73693 22.916 8.99603 22.7262 9.21407L12.664 20.7701C12.5691 20.8791 12.4663 20.9561 12.3555 21.0012C12.2448 21.047 12.1261 21.0699 11.9996 21.0699ZM4.73774 10.0862C5.7661 9.23224 6.89351 8.56432 8.11995 8.08246C9.34576 7.60132 10.639 7.36075 11.9996 7.36075C13.3602 7.36075 14.6537 7.60132 15.8801 8.08246C17.1059 8.56432 18.233 9.23224 19.2614 10.0862L20.6378 8.50545C19.4038 7.43343 18.0552 6.61107 16.5921 6.03835C15.1283 5.46637 13.5975 5.18038 11.9996 5.18038C10.4016 5.18038 8.87081 5.46637 7.40705 6.03835C5.94393 6.61107 4.59535 7.43343 3.36132 8.50545L4.73774 10.0862Z" fill="white"/>
</g>
</svg>
